<?xml version="1.0" encoding="UTF-8" standalone="no"?>
<!-- Created with Inkscape (http://www.inkscape.org/) -->
<svg
   xmlns:dc="http://purl.org/dc/elements/1.1/"
   xmlns:cc="http://creativecommons.org/ns#"
   xmlns:rdf="http://www.w3.org/1999/02/22-rdf-syntax-ns#"
   xmlns:svg="http://www.w3.org/2000/svg"
   xmlns="http://www.w3.org/2000/svg"
   xmlns:sodipodi="http://sodipodi.sourceforge.net/DTD/sodipodi-0.dtd"
   xmlns:inkscape="http://www.inkscape.org/namespaces/inkscape"
   id="svg2"
   sodipodi:version="0.32"
   inkscape:version="0.46"
   width="2979.9211"
   height="4212.9922"
   version="1.0"
   sodipodi:docname="chirogroep-poster.svg"
   inkscape:output_extension="org.inkscape.output.svg.inkscape">
  <metadata
     id="metadata7">
    <rdf:RDF>
      <cc:Work
         rdf:about="">
        <dc:format>image/svg+xml</dc:format>
        <dc:type
           rdf:resource="http://purl.org/dc/dcmitype/StillImage" />
      </cc:Work>
    </rdf:RDF>
  </metadata>
  <defs
     id="defs5">
    <inkscape:perspective
       sodipodi:type="inkscape:persp3d"
       inkscape:vp_x="0 : 526.18109 : 1"
       inkscape:vp_y="0 : 1000 : 0"
       inkscape:vp_z="744.09448 : 526.18109 : 1"
       inkscape:persp3d-origin="372.04724 : 350.78739 : 1"
       id="perspective9" />
    <inkscape:perspective
       sodipodi:type="inkscape:persp3d"
       inkscape:vp_x="0 : 526.18109 : 1"
       inkscape:vp_y="0 : 1000 : 0"
       inkscape:vp_z="744.09448 : 526.18109 : 1"
       inkscape:persp3d-origin="372.04724 : 350.78739 : 1"
       id="perspective2402" />
    <inkscape:perspective
       id="perspective2393"
       inkscape:persp3d-origin="372.04724 : 350.78739 : 1"
       inkscape:vp_z="744.09448 : 526.18109 : 1"
       inkscape:vp_y="0 : 1000 : 0"
       inkscape:vp_x="0 : 526.18109 : 1"
       sodipodi:type="inkscape:persp3d" />
  </defs>
  <sodipodi:namedview
     inkscape:window-height="750"
     inkscape:window-width="1264"
     inkscape:pageshadow="2"
     inkscape:pageopacity="0.0"
     guidetolerance="10.0"
     gridtolerance="10.0"
     objecttolerance="10.0"
     borderopacity="1.0"
     bordercolor="#666666"
     pagecolor="#ffffff"
     id="base"
     showgrid="true"
     inkscape:document-units="mm"
     inkscape:showpageshadow="true"
     borderlayer="false"
     inkscape:zoom="0.29029174"
     inkscape:cx="1658.7632"
     inkscape:cy="1946.7418"
     inkscape:window-x="0"
     inkscape:window-y="14"
     inkscape:current-layer="svg2">
    <inkscape:grid
       type="xygrid"
       id="grid2382"
       visible="true"
       enabled="true"
       units="cm"
       spacingx="1cm"
       spacingy="1cm" />
  </sodipodi:namedview>
  <text
     xml:space="preserve"
     style="font-size:160px;font-style:normal;font-variant:normal;font-weight:bold;font-stretch:normal;text-align:start;line-height:125%;writing-mode:lr-tb;text-anchor:start;fill:#000000;fill-opacity:1;stroke:none;stroke-width:1px;stroke-linecap:butt;stroke-linejoin:miter;stroke-opacity:1;font-family:Myriad Pro;-inkscape-font-specification:Myriad Pro Bold"
     x="949.41339"
     y="363.14099"
     id="text2384"
     sodipodi:linespacing="125%"><tspan
       sodipodi:role="line"
       x="949.41339"
       y="363.14099"
       id="tspan2400">Op weg naar een nieuw</tspan><tspan
       sodipodi:role="line"
       x="949.41339"
       y="563.14099"
       id="tspan2503">Chirogroepprogramma ...</tspan></text>
  <path
     d="M 180.9236,675.13501 C 180.57552,675.02537 179.86838,674.51493 179.35223,674.00079 L 178.41379,673.06596 L 178.50933,672.00375 C 178.64477,670.4992 179.05113,668.92022 179.57374,667.86792 C 180.15863,666.6903 180.21993,666.61997 181.9066,665.18807 C 183.68128,663.68169 185.21865,662.89826 186.65577,662.76789 L 187.72517,662.67093 L 188.20688,663.74448 C 189.35859,666.31084 189.5466,669.00729 188.6909,670.68525 C 188.14772,671.75025 186.43106,673.81842 185.63299,674.3695 C 184.21417,675.34914 182.49142,675.62922 180.9236,675.13501 z M 617.69721,665.3576 C 617.31773,665.21573 616.85198,664.95931 616.66222,664.7875 C 616.32612,664.48334 616.33879,664.45152 617.15385,663.54995 C 619.36925,661.09928 619.72132,657.99694 618.39365,652.6246 C 617.63501,649.55492 617.57725,648.62432 618.13624,648.47825 C 618.50776,648.38102 618.51476,648.31681 618.39552,646.0994 C 618.16058,641.73051 617.56726,638.92748 616.55306,637.39487 L 616.08811,636.69235 L 610.0054,636.65372 C 606.65985,636.63256 600.47799,636.60913 596.26786,636.60173 L 588.61312,636.58825 L 587.56448,639.25731 C 585.82013,643.69737 584.61999,645.81488 583.52794,646.37971 C 583.03129,646.63647 582.95523,646.63112 582.51788,646.3078 C 582.25774,646.11553 581.85529,645.61879 581.62356,645.20392 L 581.20219,644.4497 L 581.6744,643.88849 C 581.93411,643.5798 582.10888,643.19421 582.06283,643.03153 C 582.01672,642.86873 581.80154,642.08481 581.58464,641.28918 C 581.12131,639.5899 580.32522,637.76074 579.68174,636.91712 L 579.22399,636.31693 L 576.91782,636.31693 C 574.14132,636.31693 574.6408,636.02474 570.44265,640.10624 C 566.16432,644.26574 564.44807,645.4677 562.49976,645.66884 C 561.69604,645.75173 561.37303,645.68788 560.54427,645.28239 C 559.56869,644.80513 558.05377,643.34204 557.6734,642.50967 C 557.27566,641.63936 557.26528,642.19745 557.63591,644.52366 L 558.02158,646.94462 L 557.21589,647.05498 C 555.73755,647.25764 551.14844,647.16662 549.37624,646.89946 C 546.40024,646.45088 541.91566,645.15961 539.03766,643.92263 C 535.86233,642.55788 531.49251,640.4207 526.60657,637.84279 L 522.99288,635.93633 L 459.31265,635.40504 C 424.28852,635.11281 390.26247,634.87396 383.69912,634.87422 C 377.13582,634.87446 360.85296,634.78224 347.51493,634.66938 L 323.26392,634.46412 L 321.56899,635.02213 C 301.80826,641.52715 267.854,642.56871 226.66784,637.93323 C 216.67253,636.8083 204.79806,635.11863 198.19062,633.88136 C 195.86027,633.44489 195.71114,633.44005 180.69751,633.31447 L 165.55494,633.18774 L 165.55797,632.71833 C 165.55966,632.46007 165.71891,628.95357 165.91201,624.92613 L 166.263,617.60348 L 165.28157,614.1681 C 163.17596,606.79726 161.87866,600.76192 161.38433,596.03606 C 161.06136,592.94891 161.24973,587.01238 161.74981,584.52119 C 162.54344,580.56756 164.13939,576.72177 166.29436,573.5701 C 167.21025,572.23056 167.43209,571.72867 167.97221,569.77313 L 168.59455,567.51978 L 169.46082,548.22636 L 170.32699,528.93287 L 169.92132,525.62537 C 169.19697,519.72087 166.40042,502.67979 165.91159,501.19163 C 165.81871,500.9088 165.33779,498.42719 164.84291,495.67695 C 161.20803,475.47819 160.16665,465.77342 160.36156,453.91473 C 160.48256,446.54943 161.04832,441.38381 162.38525,435.43992 C 162.76044,433.77166 162.79161,433.35508 162.64214,432.00454 C 162.34469,429.31566 162.23359,417.52833 162.46711,413.43869 C 163.09428,402.45822 164.51865,392.7741 168.63205,371.52444 C 171.77584,355.28412 172.97468,348.27678 173.95238,340.4256 C 174.75617,333.97091 175.32793,326.59383 175.02425,326.59383 C 174.93488,326.59383 174.44123,326.87697 173.92732,327.22305 C 172.54174,328.15617 170.97934,328.90887 169.92115,329.15318 C 168.75961,329.42125 166.75596,329.15171 165.18048,328.51534 C 164.26649,328.14613 164.01088,328.11276 163.31496,328.27204 C 162.02834,328.56646 160.97731,328.1794 159.76565,326.96502 C 156.59908,323.79137 155.28998,321.90658 154.86343,319.90668 C 154.59883,318.66638 154.57424,316.27413 154.78154,311.94157 L 154.94176,308.58982 L 156.0977,308.66341 C 158.09633,308.79065 159.25022,308.0747 161.3464,305.40652 C 162.29023,304.20516 163.97527,302.99234 165.0905,302.71151 C 165.72952,302.55058 165.91371,302.38713 166.35851,301.58556 C 166.6448,301.06989 168.21393,298.42641 169.84557,295.71122 C 174.29305,288.30989 176.06479,284.6514 177.22552,280.47165 C 177.48544,279.53587 177.73392,278.65745 177.77764,278.5196 C 177.84142,278.31904 177.92887,278.33365 178.21524,278.59283 C 178.48891,278.84054 178.57255,278.85694 178.57104,278.66264 C 178.56998,278.52291 178.45132,274.5032 178.30749,269.72985 C 177.6186,246.87261 177.51452,223.84996 178.02508,207.26089 C 178.35619,196.5041 178.75178,185.66698 178.85131,184.62825 C 178.94475,183.65288 178.92009,183.5721 178.35456,182.99648 C 178.02728,182.66338 177.66091,182.26627 177.54032,182.11399 C 177.29724,181.80671 175.54839,173.69266 174.87399,169.74335 C 174.14489,165.47321 173.98338,163.73003 173.986,160.16056 C 173.98873,156.43182 174.22935,154.51 175.05023,151.66045 C 175.59187,149.78002 177.19913,146.42516 178.12435,145.24394 C 178.92106,144.22681 180.47653,141.86918 182.00844,139.35678 C 183.34671,137.16203 184.859,135.41561 186.12479,134.6034 C 187.184,133.92365 189.04417,133.42228 190.07553,133.53851 C 190.78829,133.61887 190.89187,133.57078 191.62212,132.81983 C 192.83759,131.57007 194.96436,130.03665 196.74756,129.12432 C 200.62692,127.13959 203.72857,126.54912 211.80318,126.25807 C 216.92275,126.07352 220.4626,125.81887 222.03679,125.52182 C 223.32818,125.27814 223.35649,125.28907 223.48267,126.07778 C 223.63561,127.03402 224.39501,127.86147 225.31184,128.07063 C 225.76818,128.17475 226.64868,128.16422 227.6979,128.04209 C 228.61253,127.93563 230.07715,127.89582 230.95252,127.95363 C 231.82792,128.01144 232.74747,128.06181 232.99611,128.06557 C 233.24473,128.06932 234.5465,127.53304 235.88899,126.87385 C 237.86413,125.90403 238.54427,125.65738 239.45279,125.58142 C 240.53264,125.49118 240.58416,125.50604 240.79493,125.96856 C 241.15601,126.76113 240.65583,127.51385 239.02196,128.63677 C 237.32786,129.80102 237.02277,130.2944 237.41549,131.23432 C 237.80817,132.17409 239.48836,133.73312 240.80951,134.38353 C 242.33057,135.13236 243.85934,135.36701 245.62074,135.12203 C 247.24434,134.89621 247.63332,134.79865 251.0769,133.75365 C 254.4244,132.73781 256.03018,132.40661 257.60811,132.40661 C 258.90705,132.40661 260.47881,132.70384 260.47881,132.94946 C 260.47881,133.23721 259.00202,134.40561 257.99814,134.9121 C 257.42338,135.20206 255.73263,135.82506 254.24097,136.29654 C 251.42566,137.1864 249.50632,137.94787 249.66901,138.11048 C 249.72071,138.16226 251.95043,138.36455 254.62378,138.56 C 257.2971,138.75544 261.59983,139.07627 264.18539,139.27296 C 293.54411,141.50626 308.05961,140.57864 324.5291,135.4166 L 325.92964,134.97765 L 325.81512,135.95221 C 325.68216,137.08289 325.48403,137.01966 328.0104,136.65272 C 330.77621,136.25104 335.06981,136.13134 338.31649,136.36546 C 341.94529,136.62713 344.07407,136.89763 351.41015,138.02924 C 360.67214,139.45791 362.97886,139.68995 368.05929,139.70401 C 371.97782,139.71485 375.24477,139.50124 376.46682,139.1543 C 376.74947,139.07406 376.72135,139.1372 376.33794,139.44351 C 375.84276,139.83913 375.75653,140.12398 375.58097,141.9442 C 375.51937,142.58324 375.55618,142.89344 375.69373,142.89344 C 375.80605,142.89344 377.26561,142.40525 378.93706,141.80856 C 401.82434,133.63834 426.85531,130.27089 454.12362,131.69366 C 471.55404,132.60313 485.52237,134.49793 520.57036,140.70714 C 536.6958,143.56397 545.50235,145.0528 553.30025,146.24046 C 556.24538,146.68902 559.00662,147.13481 559.43639,147.23111 C 561.19107,147.62436 568.95744,148.88456 573.27577,149.47679 C 586.27785,151.25988 598.42231,152.24599 623.54023,153.5582 C 642.61256,154.55456 652.1607,155.19712 661.32898,156.10128 C 665.99023,156.56098 677.34719,157.93791 678.44652,158.17664 C 678.6819,158.22774 682.35058,162.23037 687.59814,168.16122 C 692.41547,173.60583 696.77463,178.50799 697.28517,179.05494 C 698.1945,180.02911 698.21151,180.0678 698.12042,180.9534 C 696.2893,198.75891 693.75595,212.21405 689.59682,226.22404 L 688.77128,229.0049 L 692.92271,233.18512 L 697.07414,237.36535 L 696.83289,238.35977 C 695.92679,242.09463 695.81094,248.59352 696.57345,252.91476 C 697.35084,257.32047 698.5165,261.00414 700.26379,264.57687 C 700.77445,265.62102 701.22045,266.53637 701.25491,266.61095 C 701.28936,266.68552 700.89448,266.74653 700.37737,266.74653 C 699.48898,266.74653 699.44349,266.76896 699.55167,267.15335 C 700.35925,270.023 700.74024,275.69396 700.39289,279.67428 C 699.96549,284.57206 699.41516,287.37204 696.77858,298.06396 C 694.04955,309.13072 693.46977,312.60243 693.47851,317.82463 C 693.49063,325.07415 695.58166,330.9065 700.1285,336.37313 L 701.26946,337.74495 L 701.16478,343.42464 C 700.96326,354.35636 701.49682,367.27161 703.18835,392.40771 C 703.94905,403.71137 704.46777,412.16669 704.71917,417.35915 C 705.69584,437.53182 705.34915,453.39275 703.6191,467.68603 C 703.41635,469.36117 703.28907,470.77035 703.33623,470.81755 C 703.38341,470.86475 703.89264,471.02623 704.46783,471.17646 C 705.71248,471.50143 707.33838,472.29544 708.13921,472.96935 C 708.45679,473.23653 709.29275,474.26771 709.99693,475.26086 C 710.70109,476.25405 711.63732,477.44249 712.07751,477.90187 C 712.51766,478.36123 712.79046,478.76617 712.68374,478.80173 C 712.12633,478.98754 710.27394,480.38699 709.81576,480.96836 C 708.38998,482.77778 708.07574,483.98732 707.81029,488.68768 C 707.60634,492.29877 707.38208,493.09656 706.20184,494.40922 C 705.43877,495.25793 703.60553,496.37147 702.97058,496.37192 C 702.45302,496.3722 702.61533,496.78115 703.55713,497.84979 C 706.61609,501.32063 708.81505,505.82538 709.76411,510.56541 C 710.38644,513.67369 710.5311,515.74813 710.70351,524.03553 C 710.79555,528.46081 710.9385,532.51648 711.02116,533.04798 C 711.12526,533.71748 711.10965,534.03818 710.97039,534.09169 C 710.85982,534.13406 710.29112,534.00427 709.70665,533.80322 C 708.43018,533.36404 707.46269,533.34137 706.18486,533.7209 C 704.5988,534.19185 703.1498,535.79287 703.30669,536.90095 C 703.39503,537.52489 704.32415,537.88821 706.71167,538.2324 C 710.37316,538.76032 711.36842,539.51688 710.7032,541.26643 L 710.53618,541.70572 L 708.16895,541.15401 L 705.80171,540.60219 L 705.10014,541.28728 C 704.71428,541.66404 704.18864,542.35805 703.93203,542.82951 C 702.46982,545.51615 703.01194,547.8132 706.31266,552.91676 C 709.02872,557.1163 709.78538,558.90529 709.78538,561.1271 C 709.78538,562.35401 709.35213,563.87438 708.79382,564.60683 C 708.53961,564.94035 708.5108,564.93878 707.58685,564.5413 C 705.99391,563.85597 704.86866,563.8554 702.81805,564.53851 C 701.4771,564.9853 700.74082,565.12692 699.79165,565.12099 C 699.10175,565.11669 698.4716,565.04446 698.39132,564.96045 C 698.24685,564.80924 698.68855,561.42588 700.27909,550.5003 C 702.19881,537.3133 702.91263,529.71656 702.91017,522.4987 C 702.90585,509.89066 700.54709,499.20978 695.57587,489.28803 C 694.36592,486.87315 692.55967,483.75113 691.76671,482.70397 C 691.53369,482.39626 691.34302,482.10625 691.34302,482.0595 C 691.34302,482.0128 692.54313,481.97986 694.00993,481.98622 C 696.92914,481.99891 698.41161,481.70703 699.38994,480.92698 L 699.89935,480.52082 L 698.97515,476.91993 C 695.21507,462.2701 692.44902,445.40633 690.35911,424.39068 C 689.56281,416.38336 689.19007,412.02951 688.01091,396.96334 C 687.47933,390.1709 687.00245,384.57156 686.95119,384.52031 C 686.89993,384.46905 686.3599,384.5251 685.7511,384.64486 C 684.35291,384.9199 681.60631,384.77646 680.40418,384.3655 C 679.28049,383.98139 677.95125,383.14907 677.63087,382.62897 C 677.40779,382.26694 677.45354,382.17675 678.21417,381.47839 C 679.36326,380.4234 679.83416,379.28854 679.83116,377.58152 C 679.82813,375.87418 679.39092,374.1954 677.76514,369.64865 C 676.01172,364.74492 675.59782,363.10163 675.48235,360.58563 C 675.32674,357.19427 676.04921,355.24241 678.19982,353.24393 C 678.77741,352.70716 679.19978,352.1868 679.13839,352.08746 C 679.07701,351.98813 679.11294,351.90688 679.21826,351.90688 C 679.32356,351.90688 679.40973,352.02841 679.40973,352.17695 C 679.40973,352.93167 682.00277,354.06954 682.92427,353.71918 C 683.48507,353.50599 683.49624,353.33052 683.01246,352.33116 C 682.59828,351.47559 681.79673,350.75372 679.22892,348.92369 C 678.28419,348.2504 677.63329,347.73935 677.78246,347.78796 C 677.93164,347.83661 678.50117,348.02034 679.04812,348.1962 C 679.59506,348.37205 680.11985,348.58732 680.21433,348.67452 C 680.54951,348.98401 680.6905,348.82533 680.59559,348.24552 C 680.5427,347.92233 680.29,346.03063 680.03404,344.04175 C 679.11476,336.89887 675.98108,317.31907 675.71449,317.05249 C 675.65855,316.99653 675.61277,317.73429 675.61277,318.69196 C 675.61277,319.64964 675.16555,351.578 674.61892,389.64383 C 671.54234,603.89676 671.09259,635.34955 671.09259,636.25567 L 671.09259,637.24976 L 669.96254,637.14924 C 669.34101,637.094 659.78082,636.99704 648.71767,636.93396 L 628.60283,636.81916 L 628.60195,637.69818 C 628.60109,638.60863 628.2906,641.33734 627.36018,648.61185 C 627.0613,650.94885 626.77645,654.04064 626.72725,655.48258 C 626.59368,659.39608 625.85887,661.59899 624.08637,663.39963 C 622.35293,665.16062 619.50526,666.03332 617.69721,665.3576 z M 435.13882,577.46967 C 461.6604,575.2094 485.18615,567.02747 506.82901,552.53693 C 522.14582,542.2818 535.83469,528.83658 546.42792,513.64284 C 547.09552,512.68531 547.61225,511.87884 547.57622,511.85078 C 546.89404,511.31959 534.63997,502.64144 534.49145,502.5844 C 534.37586,502.54012 533.3364,503.82946 532.18155,505.44971 C 511.83177,534.00063 481.09366,553.48197 446.80461,559.56013 C 430.49815,562.45069 413.56075,562.29392 397.47356,559.10354 C 370.37057,553.72857 345.87122,540.29738 326.91123,520.4194 C 305.37865,497.84427 292.74959,469.66606 290.12132,438.3328 C 289.59295,432.03268 289.72362,421.43946 290.4125,414.73744 C 294.27064,377.20078 313.29125,343.60661 343.49513,320.983 C 361.00108,307.87045 381.61326,299.25212 403.36305,295.95097 C 406.0173,295.54815 412.88848,294.77169 413.79945,294.77169 C 414.16301,294.77169 414.16518,294.84597 414.16518,307.0666 L 414.16518,319.3615 L 422.30154,319.3615 L 430.43789,319.3615 L 430.43789,306.95922 L 430.43789,294.55693 L 431.29668,294.65705 C 431.76903,294.71205 432.88779,294.80571 433.78282,294.86518 C 444.55109,295.58035 457.47245,298.33396 468.21566,302.203 C 469.85045,302.79173 471.24507,303.2116 471.31473,303.13594 C 471.4995,302.93545 477.44782,288.59429 477.44782,288.34936 C 477.44782,288.23559 477.18335,288.05318 476.86017,287.94405 C 476.53699,287.83488 474.72667,287.20501 472.83719,286.5443 C 460.81761,282.34119 447.87078,279.5952 435.77167,278.68274 C 434.37945,278.57777 432.74706,278.44795 432.14414,278.39424 L 431.04791,278.29668 L 430.82753,269.9451 C 430.70631,265.35175 430.55717,260.56158 430.49605,259.30024 L 430.38507,257.007 L 437.14657,256.94019 C 443.41865,256.8782 444.01049,256.84485 445.32379,256.47983 C 449.01859,255.45278 451.96905,253.80898 454.60527,251.30883 C 458.02666,248.06398 460.02592,244.59262 461.33404,239.62545 C 462.81132,234.01592 463.02094,226.95292 461.88487,221.06583 C 460.10086,211.82128 454.35799,204.95688 446.10866,202.2086 C 442.76161,201.09356 443.19897,201.12003 428.06814,201.11658 L 414.21717,201.11343 L 414.09959,212.54951 C 414.03488,218.83935 413.89203,236.23079 413.78208,251.19713 C 413.67216,266.16346 413.57098,278.41902 413.55728,278.43176 C 413.54359,278.44449 411.98646,278.59053 410.097,278.75633 C 378.25504,281.55025 349.02172,294.04454 324.48472,315.34693 C 319.13382,319.9924 311.39271,328.05691 306.65986,333.91651 C 288.77502,356.05913 277.54359,382.95116 274.41554,411.12128 C 273.79624,416.69837 273.66478,418.87939 273.55501,425.40512 C 273.40837,434.12338 273.82831,441.28558 274.95812,449.33306 C 277.22799,465.50062 282.49804,482.0766 289.95732,496.51048 C 291.56395,499.61936 291.97721,500.34696 295.06468,505.50278 C 306.68513,524.9081 323.35835,542.0734 342.58094,554.42122 C 352.07654,560.52079 363.62679,566.07675 374.54751,569.79794 C 381.24134,572.07891 387.18828,573.68533 393.86454,575.01595 C 401.50242,576.53843 407.02546,577.20584 416.96772,577.80786 C 419.60437,577.96749 432.00532,577.73674 435.13882,577.46967 z M 430.43789,228.94865 L 430.43789,217.91029 L 434.73201,217.96462 C 438.96711,218.0182 439.04056,218.02567 440.06917,218.50768 C 442.17903,219.49638 443.84437,221.77288 444.67163,224.79921 C 445.16492,226.60394 445.10424,231.94432 444.56786,233.92998 C 443.8019,236.76545 442.43645,238.76235 440.68302,239.61112 C 439.95725,239.96247 439.59698,239.98706 435.1722,239.98706 L 430.43789,239.98706 L 430.43789,228.94865 z M 566.45589,478.02192 C 570.52189,477.31283 574.33397,475.24168 577.38119,472.08594 C 579.968,469.40699 581.49372,466.59315 582.50157,462.64267 C 583.81082,457.51079 583.52503,452.43791 581.68018,448.06366 C 579.24326,442.28552 572.99053,437.52549 566.1718,436.25769 C 561.47787,435.3849 556.98251,435.60165 553.31117,436.87762 C 546.10831,439.38094 540.77527,447.32587 540.25838,456.32317 C 539.98937,461.00572 541.26049,465.46046 543.94095,469.22902 C 547.3564,474.03106 552.21876,476.94265 558.63033,478.02522 C 560.54378,478.34829 564.59401,478.34659 566.45589,478.02192 z M 559.98639,466.73282 C 553.24617,465.33472 549.42063,461.66588 549.41513,456.59435 C 549.4121,453.80604 550.24118,451.74595 552.10742,449.90449 C 555.18724,446.86569 559.20959,446.15857 565.02485,447.63373 C 567.64925,448.29945 569.6727,449.36738 571.20368,450.89472 C 574.34431,454.02801 575.02452,457.98581 573.09995,461.92821 C 572.16157,463.85049 569.94305,465.72094 567.62059,466.54797 C 566.01897,467.11818 562.281,467.20877 559.98639,466.73282 z M 585.20583,429.16917 C 585.86266,427.41361 586.10764,426.01995 586.11039,424.02284 C 586.11619,419.85934 584.78721,417.76128 580.51897,415.19604 C 578.80122,414.16362 578.7148,414.23581 582.03716,413.92844 C 583.2262,413.81842 584.23123,413.69623 584.27051,413.65699 C 584.33278,413.59471 583.77006,407.22554 583.46739,404.56705 C 583.3624,403.64501 583.34291,403.61776 582.78798,403.61776 C 582.07825,403.61776 542.50528,407.38096 542.45784,407.45292 C 542.41805,407.51339 543.36924,417.44796 543.46742,417.99681 C 543.53262,418.36142 543.56359,418.36029 549.68036,417.78019 C 559.68991,416.83097 562.4687,416.63576 565.92685,416.63905 C 569.53134,416.6425 570.97063,416.85387 572.71228,417.63546 C 576.00046,419.11115 577.01988,422.65101 575.30248,426.6301 C 575.05464,427.2044 574.88554,427.70794 574.92673,427.7492 C 575.02855,427.85096 584.13659,430.15937 584.51803,430.18005 C 584.72725,430.19134 584.94078,429.87752 585.20583,429.16917 z M 560.06633,394.01225 C 570.7623,390.81757 579.60207,388.15287 579.71018,388.0908 C 579.84036,388.0161 579.38213,386.21779 578.35411,382.76886 L 576.80149,377.55978 L 576.31917,377.65357 C 575.4666,377.81934 537.57041,389.1804 537.45572,389.30463 C 537.34399,389.42565 540.39107,399.81632 540.53912,399.81925 C 540.58309,399.82015 549.37034,397.20697 560.06633,394.01225 z M 590.00043,385.05541 C 592.58599,384.29257 594.73082,383.64588 594.76677,383.61833 C 594.83721,383.56427 591.7684,373.23212 591.64535,373.10911 C 591.54572,373.0095 582.27031,375.7783 582.06091,375.97013 C 581.93014,376.08997 584.64332,385.7181 584.97338,386.30548 C 585.08826,386.50992 584.97491,386.53814 590.00043,385.05541 z M 547.55198,375.18285 C 553.74024,371.38077 559.55772,367.7411 560.47973,367.09467 C 563.69875,364.83796 565.75567,362.35061 566.61004,359.68158 C 567.13354,358.04621 567.12818,354.92989 566.59837,352.90128 C 566.18136,351.30465 565.11115,348.93524 564.20878,347.61097 C 563.33991,346.33584 561.39448,344.36869 560.18927,343.54655 C 558.69393,342.5265 556.68061,341.63466 554.80042,341.15937 C 553.6395,340.86589 553.25686,340.70221 553.42509,340.57108 C 553.55325,340.4711 557.36018,338.12764 561.88489,335.36339 C 566.40958,332.59911 570.21493,330.24322 570.34115,330.12812 C 570.52283,329.96244 569.98172,328.95939 567.74645,325.31819 C 566.19314,322.78786 564.89345,320.68744 564.85832,320.65053 C 564.81355,320.60361 519.79513,348.11797 516.69996,350.08394 C 516.49909,350.21152 517.04583,351.2272 519.30227,354.91833 C 520.87342,357.4884 522.17509,359.61225 522.19492,359.63796 C 522.21477,359.6637 526.47655,357.08022 531.66564,353.89693 C 543.17103,346.83875 544.93409,345.92241 547.81766,345.50222 C 550.8085,345.06645 554.23073,347.15672 555.84094,350.40297 C 556.47684,351.68489 556.54253,351.95112 556.54661,353.26288 C 556.55051,354.53297 556.48566,354.82745 556.01472,355.67768 C 554.98957,357.52851 553.7073,358.42062 540.12552,366.73221 C 534.87031,369.94819 530.5335,372.67615 530.48813,372.79444 C 530.38902,373.0527 535.86072,382.08567 536.11981,382.09162 C 536.21927,382.0939 541.36373,378.98496 547.55198,375.18285 z M 513.79483,341.59065 C 516.59745,341.24131 519.77992,339.93518 522.42364,338.04929 C 523.0452,337.6059 523.55368,337.16424 523.55368,337.0677 C 523.55368,336.97113 521.95808,335.07004 520.00791,332.84299 L 516.46217,328.79374 L 515.35213,329.61175 C 512.96394,331.37173 510.95122,332.04254 509.14327,331.68111 C 506.67583,331.18788 504.33624,329.35447 503.17442,327.00372 C 502.58087,325.80268 502.49642,325.46006 502.43346,323.99655 C 502.37548,322.65038 502.43458,322.13116 502.75281,321.18962 C 504.30474,316.59788 509.08442,310.83587 512.83898,309.03042 C 513.87712,308.53121 514.30654,308.43232 515.68857,308.37437 C 518.25911,308.26655 520.14492,309.08855 522.1504,311.19112 C 524.37418,313.52248 524.75832,315.84491 523.42032,318.86806 C 523.16634,319.4419 522.99076,319.94005 523.03009,319.97505 C 523.26637,320.18489 532.39639,325.14736 532.54621,325.14736 C 532.8189,325.14736 533.80802,322.00892 534.14738,320.06659 C 534.51864,317.942 534.40002,315.14722 533.85658,313.21406 C 532.86089,309.6723 529.97494,305.86353 526.03738,302.89469 C 523.50349,300.98414 521.33452,299.87605 518.54818,299.0686 C 517.31084,298.71002 516.74134,298.66036 513.97092,298.66943 C 511.05769,298.67898 510.67982,298.71874 509.20606,299.17125 C 505.80869,300.21435 502.94744,302.00198 500.04156,304.89693 C 494.62355,310.29454 491.89366,315.94418 491.87285,321.80242 C 491.86178,324.92262 492.37434,327.1425 493.73526,329.86814 C 496.64134,335.68859 503.93548,340.89293 510.26437,341.66158 C 511.36792,341.79562 512.30107,341.77686 513.79483,341.59065 z M 130.32743,651.04669 C 129.1036,650.78102 127.92361,650.17742 127.27943,649.48734 C 127.06137,649.25393 126.65951,648.57486 126.38633,647.97854 C 125.94994,647.02584 125.89134,646.68431 125.90349,645.16566 C 125.92603,642.35999 126.79072,639.82466 128.58211,637.31147 C 130.28074,634.92841 133.90911,631.97692 137.10809,630.37589 L 138.22314,629.81779 L 139.2369,630.91274 C 141.66596,633.53645 143.50258,638.09079 144.23198,643.29935 L 144.4628,644.94792 L 143.94715,645.83063 C 142.90517,647.61395 140.51483,649.74031 138.30422,650.85034 C 137.39756,651.30564 137.24676,651.32351 134.41683,651.30957 C 132.65038,651.30102 131.01459,651.19587 130.32743,651.04669 z M 712.23019,589.89204 C 711.28349,589.13923 710.53087,588.50131 710.55771,588.47449 C 710.58453,588.44762 711.8832,588.89317 713.44363,589.46455 L 716.28079,590.50347 L 715.11612,590.88212 L 713.95148,591.26077 L 712.23019,589.89204 z M 704.63535,581.09105 C 699.56534,578.58974 695.49717,576.4952 695.59498,576.43653 C 695.69277,576.3779 696.43422,576.27238 697.24262,576.20207 L 698.71244,576.07438 L 698.62739,576.51919 C 698.44935,577.45059 699.62622,577.93449 707.93943,580.34835 C 714.21905,582.17165 716.23623,583.19908 715.85508,584.3801 C 715.75698,584.68399 714.9739,585.22055 714.21517,585.50381 C 713.94416,585.60493 711.54405,584.49939 704.63535,581.09105 z M 131.2742,580.45641 C 129.28304,580.14625 127.59113,579.3591 126.28044,578.13319 C 125.20356,577.12585 124.66228,576.2391 124.03912,574.4617 C 123.63941,573.32124 123.58114,572.89691 123.64319,571.57394 C 123.70748,570.20464 123.80007,569.85536 124.43461,568.59062 C 125.61864,566.23017 127.97215,563.06371 129.09857,562.3158 C 132.95154,559.75766 136.47207,559.07747 139.60901,560.28527 C 142.51122,561.40259 142.89809,561.73476 144.1408,564.17484 C 144.7794,565.42902 144.83702,565.66947 144.90728,567.37506 C 145.00282,569.69401 144.63963,571.47243 143.64112,573.57686 C 143.00557,574.91599 142.67609,575.3405 141.07962,576.87732 C 138.44707,579.41154 136.62653,580.28745 133.53992,580.50524 C 132.80082,580.55733 131.78119,580.53545 131.2742,580.45641 z M 698.10861,573.02084 C 697.20942,572.75971 696.87982,572.26078 696.952,571.27019 C 697.0953,569.30399 697.04452,568.91163 696.58194,568.41115 L 696.13442,567.92689 L 696.58644,568.05356 C 699.73782,568.93681 701.63516,569.76752 702.29652,570.55342 C 702.91718,571.29104 702.83359,571.84546 701.95655,572.80842 C 701.62784,573.16926 701.42122,573.21338 700.12587,573.19887 C 699.32279,573.18993 698.41503,573.10978 698.10861,573.02084 z M 701.83814,267.48526 C 701.69821,267.2238 701.69543,267.10815 701.82917,267.10815 C 702.04836,267.10815 702.28709,267.61524 702.13807,267.76428 C 702.08411,267.81823 701.94914,267.69268 701.83814,267.48526 z"
     id="path2450"
     style="fill:#e51837;fill-opacity:1" />
  <g
     id="g3156"
     transform="matrix(1.4899417,0,0,1.4899417,-1.8195119e-6,1596.6996)">
    <path
       style="fill:#fbe80c;fill-opacity:1"
       d="M 1873.536,1751.8038 C 1863.2331,1743.2197 1860.02,1739.7068 1861.1862,1738.3016 C 1861.7883,1737.5762 1863.5758,1736.9826 1865.1584,1736.9826 C 1866.7411,1736.9826 1868.036,1736.5997 1868.036,1736.1317 C 1868.036,1735.6638 1865.678,1732.1763 1862.796,1728.3817 C 1859.914,1724.5872 1856.6003,1719.4327 1855.4322,1716.9273 C 1853.3136,1712.3832 1853.2884,1712.3674 1845.181,1710.5157 C 1832.5815,1707.6381 1832.4596,1707.0066 1842.563,1696.9558 C 1847.2231,1692.3198 1851.036,1688.0169 1851.036,1687.3938 C 1851.036,1686.0921 1837.9444,1679.9075 1830.536,1677.7095 C 1827.786,1676.8936 1823.961,1675.3116 1822.036,1674.1939 C 1818.4387,1672.1053 1807.5019,1668.9826 1803.784,1668.9826 C 1802.6342,1668.9826 1800.8638,1668.2318 1799.8498,1667.3141 C 1798.799,1666.3631 1795.9212,1665.5209 1793.1582,1665.3556 C 1787.126,1664.9948 1774.8209,1661.6458 1771.83,1659.5509 C 1770.4767,1658.603 1767.4837,1657.9826 1764.2638,1657.9826 C 1761.3339,1657.9826 1757.7215,1657.3696 1756.2363,1656.6204 C 1754.7512,1655.8711 1751.5886,1655.0093 1749.2084,1654.7051 C 1746.8282,1654.4009 1744.0928,1653.439 1743.1296,1652.5673 C 1742.1665,1651.6957 1740.6248,1650.9826 1739.7036,1650.9826 C 1738.7824,1650.9826 1736.3495,1650.0826 1734.2972,1648.9826 C 1732.2448,1647.8826 1730.0516,1646.9826 1729.4233,1646.9826 C 1728.795,1646.9826 1727.7685,1646.3653 1727.1423,1645.6107 C 1726.5161,1644.8562 1723.1985,1643.2539 1719.7699,1642.0502 C 1713.6837,1639.9133 1710.0697,1638.4877 1707.036,1637.027 C 1706.211,1636.6298 1702.9681,1635.5018 1699.8295,1634.5205 C 1696.6909,1633.5391 1693.3587,1631.8916 1692.4245,1630.8594 C 1691.4903,1629.8272 1690.1221,1628.9826 1689.3839,1628.9826 C 1688.6457,1628.9826 1686.3485,1627.4529 1684.279,1625.5832 C 1680.4933,1622.163 1667.1998,1616.9826 1662.209,1616.9826 C 1660.8986,1616.9826 1657.7184,1615.9238 1655.1419,1614.6297 C 1652.5654,1613.3356 1648.675,1611.6965 1646.4967,1610.9874 C 1644.3183,1610.2782 1641.6484,1609.0871 1640.5635,1608.3403 C 1636.9006,1605.8191 1635.4094,1606.7434 1631.6753,1613.8495 C 1628.0406,1620.7662 1624.0335,1624.7858 1615.0361,1630.5398 C 1612.5611,1632.1226 1609.2641,1634.4447 1607.7094,1635.7001 C 1606.0456,1637.0436 1603.5264,1637.9826 1601.5859,1637.9826 C 1599.7727,1637.9826 1587.747,1635.3289 1574.8621,1632.0855 C 1461.3253,1603.506 1336.085,1582.2002 1213.0361,1570.5319 C 1156.5063,1565.1714 1115.4815,1562.5475 1031.5361,1558.9233 C 1008.5196,1557.9297 896.2168,1558.2784 878.03607,1559.4 C 873.36107,1559.6884 858.73607,1560.4085 845.53607,1561.0002 C 772.28057,1564.2842 702.05023,1569.6157 641.27247,1576.5068 C 614.15711,1579.5812 612.43823,1579.6026 610.98321,1576.8838 C 609.95174,1574.9565 610.13599,1563.4832 611.55972,1540.9826 C 612.144,1531.749 611.67858,1530.9826 605.48668,1530.9826 C 602.55376,1530.9826 599.9393,1531.3302 599.67675,1531.755 C 599.41421,1532.1798 598.70344,1541.8446 598.09727,1553.2323 C 596.79552,1577.6877 596.44493,1579.8744 593.64382,1581.0085 C 592.48456,1581.4779 579.61108,1582.3593 565.03607,1582.9673 C 455.52137,1587.5358 361.60527,1604.3854 258.53608,1637.9568 C 247.64475,1641.5043 244.14293,1642.109 220.63304,1644.5021 C 180.55309,1648.5819 124.95166,1656.9199 97.53607,1662.9619 C 92.58607,1664.0528 82.91107,1666.0953 76.03607,1667.5008 C 52.9377,1672.223 48.62324,1673.2052 25.06746,1679.1048 C 12.15973,1682.3376 1.24724,1684.9826 0.81747,1684.9826 C 0.38771,1684.9826 0.03608,1658.958 0.03608,1627.1501 L 0.03608,1569.3176 L 10.28608,1566.1984 C 27.31088,1561.0176 55.12481,1552.8201 62.03607,1550.9462 C 181.78412,1518.4787 282.78536,1496.5573 388.67753,1480.0516 C 451.65242,1470.2355 485.80261,1465.9282 555.53607,1459.0057 C 601.75306,1454.4177 599.43053,1454.548 601.01239,1456.4541 C 602.18143,1457.8627 602.21142,1462.1961 601.20514,1484.3024 C 600.54968,1498.7015 600.01851,1512.1701 600.02473,1514.2326 L 600.03607,1517.9826 L 605.42908,1517.9826 C 609.59844,1517.9826 611.00087,1517.5855 611.61005,1516.2326 C 612.04341,1515.2701 612.65406,1501.3424 612.96704,1485.2822 C 613.37806,1464.1902 613.87707,1455.7409 614.76409,1454.8542 C 616.59902,1453.0199 660.71884,1449.9089 727.53607,1446.9025 C 764.10541,1445.257 937.61482,1445.159 967.03608,1446.7671 C 1061.4465,1451.9274 1112.3795,1456.3409 1194.0361,1466.4371 C 1209.1611,1468.3072 1225.3611,1470.1186 1230.0361,1470.4624 C 1312.7712,1476.5474 1400.4342,1493.0382 1482.3553,1517.9277 C 1492.9171,1521.1366 1510.5535,1526.0964 1521.5473,1528.9495 C 1574.6659,1542.7348 1648.2853,1564.7875 1651.321,1567.8231 L 1653.3984,1569.9005 L 1647.7172,1581.7755 C 1644.5925,1588.3068 1642.036,1593.9503 1642.036,1594.3166 C 1642.036,1594.6829 1642.6559,1594.9826 1643.4136,1594.9826 C 1644.1712,1594.9826 1645.3449,1595.6499 1646.0218,1596.4655 C 1646.6987,1597.2811 1648.6663,1598.3698 1650.3942,1598.8848 C 1653.6908,1599.8674 1659.1502,1601.7438 1662.536,1603.058 C 1663.636,1603.485 1668.7442,1605 1673.8877,1606.4248 C 1680.3764,1608.2222 1684.5093,1610.0293 1687.3877,1612.3274 C 1693.3232,1617.0665 1699.739,1620.5459 1707.1161,1623.0265 C 1713.2985,1625.1053 1720.6433,1628.114 1724.2724,1630.0542 C 1725.2275,1630.5648 1726.8452,1630.9826 1727.8674,1630.9826 C 1728.8897,1630.9826 1730.5405,1631.8826 1731.536,1632.9826 C 1732.5315,1634.0826 1734.1211,1634.9826 1735.0685,1634.9826 C 1736.016,1634.9826 1737.3513,1635.6576 1738.036,1636.4826 C 1738.7207,1637.3076 1740.731,1637.9826 1742.5035,1637.9826 C 1744.456,1637.9826 1746.4393,1638.7708 1747.536,1639.9826 C 1748.5822,1641.1386 1750.652,1641.9976 1752.441,1642.018 C 1754.1432,1642.0375 1756.661,1642.6966 1758.036,1643.4826 C 1759.411,1644.2686 1763.011,1644.9304 1766.036,1644.9533 C 1769.1594,1644.9769 1772.8323,1645.701 1774.536,1646.629 C 1776.186,1647.5277 1779.336,1648.6325 1781.536,1649.0841 C 1783.736,1649.5357 1788.011,1650.4044 1791.036,1651.0144 C 1794.061,1651.6245 1797.886,1652.604 1799.536,1653.1912 C 1801.186,1653.7784 1806.136,1655.2231 1810.536,1656.4018 C 1814.936,1657.5805 1821.4204,1659.9933 1824.9457,1661.7637 C 1828.4711,1663.5341 1832.0047,1664.9826 1832.7983,1664.9826 C 1833.5919,1664.9826 1839.2575,1667.1755 1845.3886,1669.8557 C 1851.5197,1672.5359 1857.5432,1674.9673 1858.7741,1675.259 C 1861.858,1675.9895 1863.9128,1674.1663 1877.0913,1659.0068 C 1883.3432,1651.815 1888.9259,1646.1082 1889.4973,1646.325 C 1897.3772,1649.3158 1994.1319,1670.9826 1999.6078,1670.9826 C 1999.8433,1670.9826 2000.036,1686.3479 2000.036,1705.1276 L 2000.036,1739.2727 L 1993.286,1738.6972 C 1978.4585,1737.433 1894.8279,1722.5203 1873.1508,1717.2751 L 1870.7657,1716.6979 L 1873.1508,1720.0903 C 1874.4627,1721.9561 1876.7735,1724.9608 1878.286,1726.7674 C 1879.7985,1728.574 1881.036,1730.5596 1881.036,1731.1798 C 1881.036,1733.4925 1887.1993,1741.8077 1889.3273,1742.3661 C 1890.5421,1742.6848 1894.686,1745.8581 1898.536,1749.4178 L 1905.536,1755.89 L 1892.036,1755.9299 L 1878.536,1755.9697 L 1873.536,1751.8038 z"
       id="path2384" />
    <path
       style="fill:#f89928;fill-opacity:1"
       d="M 1913.4682,1752.4411 C 1871.2275,1744.196 1815.6029,1730.8748 1813.0097,1728.3828 C 1811.7398,1727.1624 1812.0469,1726.4735 1815.3846,1723.0554 L 1819.218,1719.1297 L 1814.5055,1718.423 C 1811.5487,1717.9796 1807.6836,1716.2859 1804.1306,1713.8768 C 1800.9695,1711.7333 1794.7135,1708.8756 1789.9682,1707.4076 C 1785.2932,1705.9613 1780.1183,1704.1846 1778.4682,1703.4593 C 1771.1332,1700.2352 1765.1615,1698.9697 1757.2825,1698.9697 C 1750.8946,1698.9697 1746.4494,1698.2382 1738.2108,1695.8312 C 1732.3023,1694.105 1726.278,1692.0929 1724.8232,1691.3598 C 1723.3685,1690.6268 1720.4436,1689.6195 1718.3232,1689.1214 C 1716.203,1688.6233 1707.2682,1686.3127 1698.4682,1683.9867 C 1682.0171,1679.6384 1674.6234,1678.2914 1662.4682,1677.4282 C 1654.7904,1676.883 1641.3338,1673.7272 1636.8918,1671.4301 C 1635.3385,1670.6269 1632.1328,1669.9538 1629.7679,1669.9343 C 1627.403,1669.9148 1624.3433,1669.2557 1622.9683,1668.4697 C 1621.5933,1667.6837 1619.1184,1667.0094 1617.4683,1666.9712 C 1615.8183,1666.9331 1612.6683,1666.0324 1610.4683,1664.9697 C 1608.2683,1663.907 1605.8835,1663.0223 1605.1686,1663.0036 C 1603.105,1662.9498 1597.7586,1659.9452 1594.1811,1656.8289 C 1592.3731,1655.254 1589.2725,1653.288 1587.2908,1652.46 C 1583.7797,1650.9929 1583.5282,1651.0437 1577.4397,1654.4486 L 1571.1917,1657.9427 L 1546.33,1652.0103 C 1361.9192,1608.0073 1158.0611,1585 952.35293,1584.9744 C 931.38949,1584.9718 905.06449,1585.4039 893.85293,1585.9346 C 882.64137,1586.4653 860.41827,1587.3838 844.46827,1587.9756 C 828.51827,1588.5675 812.76827,1589.2362 809.46827,1589.4617 C 806.16827,1589.6871 798.29327,1590.1558 791.96827,1590.5032 C 785.64327,1590.8505 777.09327,1591.9465 772.96827,1592.9387 C 768.84327,1593.9308 763.44327,1595.0548 760.96827,1595.4364 C 758.49327,1595.818 753.24268,1597.2191 749.3003,1598.5499 C 745.35791,1599.8808 741.40839,1600.9697 740.52357,1600.9697 C 739.63876,1600.9697 735.43935,1602.0751 731.19155,1603.4261 C 724.71052,1605.4874 719.92967,1606.0709 701.46827,1607.0541 C 689.36827,1607.6984 673.39327,1607.9401 665.96827,1607.5911 C 658.54327,1607.2421 639.57352,1606.6894 623.81327,1606.363 C 596.29294,1605.7929 595.04561,1605.8483 592.31327,1607.7629 C 590.18249,1609.2559 585.32606,1610.2949 572.96827,1611.9015 C 535.99171,1616.7085 491.36257,1623.7119 451.18407,1631.0122 L 423.89988,1635.9697 L 384.90324,1635.9697 L 345.9066,1635.9697 L 322.11858,1642.4697 L 298.33057,1648.9697 L 263.77186,1648.9697 C 234.27297,1648.9697 229.03089,1648.7501 227.96827,1647.4697 C 226.13394,1645.2595 228.04705,1643.4771 234.78254,1641.1211 C 237.90969,1640.0272 245.64327,1637.2697 251.96827,1634.9932 C 293.03504,1620.2123 357.35697,1603.3776 404.77432,1594.9999 C 465.95035,1584.1913 512.46676,1579.3977 570.95799,1577.8743 C 601.43947,1577.0804 610.79223,1576.5393 611.95799,1575.5023 C 614.42244,1573.3101 694.06686,1565.0697 756.96827,1560.499 C 822.99228,1555.7013 874.64374,1554.0777 963.46825,1554.008 C 1038.6101,1553.949 1056.4304,1554.3657 1112.9682,1557.5035 C 1270.0556,1566.2219 1427.6076,1589.806 1574.367,1626.5706 C 1588.6113,1630.139 1601.1259,1633.5189 1602.1774,1634.0816 C 1604.7933,1635.4816 1604.0705,1637.9842 1600.32,1640.5116 L 1597.1856,1642.6239 L 1601.7149,1646.2968 C 1604.206,1648.3169 1606.9696,1649.9725 1607.8562,1649.9759 C 1608.7429,1649.9792 1610.7691,1650.6604 1612.3591,1651.4896 C 1613.9491,1652.3188 1617.2825,1653.2412 1619.7671,1653.5394 C 1622.2515,1653.8376 1625.5407,1654.7314 1627.0764,1655.5257 C 1628.6123,1656.3199 1631.4369,1656.9697 1633.3534,1656.9697 C 1635.2699,1656.9697 1638.1048,1657.4659 1639.6531,1658.0723 C 1646.5767,1660.784 1657.1835,1663.2511 1665.4682,1664.0767 C 1680.0994,1665.5346 1688.2754,1666.7148 1691.4682,1667.8295 C 1694.4754,1668.8795 1704.8623,1671.4295 1712.5975,1673.0168 C 1714.8685,1673.4829 1719.3685,1674.8045 1722.5975,1675.9539 C 1739.6353,1682.0185 1751.4231,1684.9697 1758.6089,1684.9697 C 1765.5198,1684.9697 1774.6684,1687.0577 1782.4682,1690.415 C 1784.1183,1691.1252 1788.8432,1692.7497 1792.9682,1694.025 C 1799.9789,1696.1924 1811.1772,1701.8806 1812.4327,1703.9121 C 1812.7389,1704.4075 1816.022,1705.1287 1819.7288,1705.5148 C 1823.4355,1705.901 1827.2982,1706.6499 1828.3125,1707.179 C 1829.7143,1707.9101 1830.7171,1707.6149 1832.4903,1705.9489 C 1835.5386,1703.0853 1838.077,1703.3647 1863.4682,1709.3579 C 1899.5399,1717.8721 1931.0889,1723.7525 1991.4682,1733.2158 L 1999.4682,1734.4697 L 1999.752,1745.2197 L 2000.036,1755.9697 L 1965.252,1755.8645 L 1930.4682,1755.7594 L 1913.4682,1752.4411 z"
       id="path2477" />
    <path
       style="fill:#0b79bf;fill-opacity:1"
       d="M 0.03611,1743.0774 L 0.03611,1730.1851 L 6.78611,1728.6162 C 14.29554,1726.8708 28.19132,1724.0118 43.9598,1720.9678 C 49.69283,1719.8611 54.59684,1718.7423 54.85759,1718.4816 C 55.11835,1718.2208 53.69018,1714.4164 51.6839,1710.0274 C 49.67762,1705.6383 48.03611,1700.9611 48.03611,1699.6335 C 48.03611,1698.3059 47.74658,1695.772 47.3927,1694.0027 C 46.76629,1690.8706 46.64084,1690.8021 42.6427,1691.4078 C 40.38408,1691.75 29.87361,1694.1988 19.28611,1696.8496 L 0.03611,1701.6693 L 0.03611,1691.3869 C 0.03611,1682.4455 0.26435,1681.0412 1.78611,1680.6195 C 2.74861,1680.3527 14.68429,1677.3373 28.30984,1673.9186 C 51.38457,1668.129 53.20736,1667.8147 54.88858,1669.3362 C 57.26391,1671.4858 58.04727,1671.4257 67.49647,1668.3687 C 80.85592,1664.0467 84.28459,1663.1537 90.29993,1662.4296 C 93.50383,1662.0439 97.1293,1660.8976 98.4629,1659.8486 C 100.85442,1657.9675 105.23921,1656.9271 127.03611,1653.069 C 154.3753,1648.23 203.48144,1641.5389 230.87197,1638.9206 C 239.98535,1638.0495 243.50075,1638.0343 244.32911,1638.8627 C 246.16263,1640.6962 243.38076,1642.5403 233.0361,1646.3486 C 217.60128,1652.0308 206.29025,1656.4964 193.5361,1661.9432 C 184.06457,1665.9881 179.7451,1667.2616 173.0361,1667.9872 C 165.38539,1668.8148 144.89853,1671.7762 123.73744,1675.1135 C 116.7966,1676.2081 115.62333,1676.1571 113.07116,1674.6495 C 110.85573,1673.3408 109.60114,1673.1846 107.55473,1673.9626 C 106.09788,1674.5165 101.93314,1674.9697 98.29975,1674.9697 C 93.53633,1674.9697 91.17968,1675.4348 89.85125,1676.637 C 88.61861,1677.7525 85.77961,1678.4146 81.27251,1678.6376 C 73.21361,1679.0363 69.82151,1680.2617 68.51113,1683.2478 C 67.898,1684.645 66.13428,1685.816 63.75925,1686.4026 C 61.11007,1687.057 59.81488,1688.003 59.42137,1689.5708 C 58.55362,1693.0282 60.78046,1701.9741 64.39037,1709.5329 L 67.66283,1716.385 L 74.50921,1716.4274 C 82.68443,1716.4779 83.77649,1717.8636 78.13847,1721.0323 L 74.13639,1723.2816 L 78.59996,1726.1123 C 81.05492,1727.6692 84.7956,1729.8267 86.91257,1730.9067 L 90.76162,1732.8703 L 102.36077,1726.42 C 108.74031,1722.8723 114.23744,1719.9697 114.57663,1719.9697 C 114.91582,1719.9697 118.55766,1722.7822 122.66961,1726.2197 C 141.60148,1742.0463 140.63205,1741.4926 149.0361,1741.2797 C 153.1611,1741.1752 158.5611,1740.8813 161.0361,1740.6267 C 163.5111,1740.372 169.93043,1739.841 175.30128,1739.4466 C 180.67213,1739.0523 185.28906,1738.3694 185.56112,1737.9292 C 185.83318,1737.489 180.31385,1732.3805 173.29594,1726.5769 C 153.06523,1709.8468 150.68457,1707.5063 152.42682,1706.0604 C 155.89742,1703.1801 246.2195,1697.9697 292.67993,1697.9697 C 369.09571,1697.9697 464.23559,1706.1173 539.03611,1719.0672 C 548.66111,1720.7336 559.23611,1722.541 562.53611,1723.0838 C 565.83611,1723.6265 569.33493,1724.8592 570.31128,1725.8231 C 571.95264,1727.4435 571.97206,1727.8998 570.56892,1731.8767 C 568.76229,1736.9972 569.25584,1736.9638 576.93737,1731.4452 L 582.03611,1727.7821 L 582.03611,1710.5226 C 582.03611,1701.0299 582.31665,1690.5791 582.65952,1687.2986 L 583.28293,1681.3341 L 576.04468,1680.0406 C 571.32227,1679.1966 567.31874,1677.743 564.52624,1675.8584 C 562.17214,1674.2696 559.81857,1672.9697 559.29607,1672.9697 C 558.77358,1672.9697 557.53956,1672.0785 556.55381,1670.9893 C 554.499,1668.7187 554.43751,1668.7068 531.03611,1666.0462 C 444.11778,1656.1643 348.65863,1653.3346 275.93058,1658.4843 C 269.99069,1658.9049 268.05976,1658.7031 267.11366,1657.5632 C 266.12959,1656.3774 266.33705,1655.8299 268.21918,1654.6454 C 272.01491,1652.2565 310.65454,1640.8339 338.32687,1633.9201 C 346.96759,1631.7613 348.00022,1631.7329 398.82687,1632.2582 C 452.03799,1632.8081 485.28937,1634.4863 532.03611,1638.9811 C 555.03121,1641.1922 584.67233,1644.7155 586.87775,1645.5 C 587.83157,1645.8393 588.12064,1647.4938 587.87775,1651.2235 C 587.49305,1657.1309 586.3913,1656.5948 598.01706,1656.1572 C 602.38278,1655.9929 603.07323,1655.67 603.60699,1653.5433 C 603.94194,1652.2088 605.005,1650.4028 605.96935,1649.5301 C 607.57279,1648.079 608.78359,1648.1158 620.12941,1649.9606 C 658.60337,1656.2163 697.44599,1663.6297 727.53842,1670.4603 C 755.7834,1676.8716 811.74051,1691.6835 825.53611,1696.4004 C 834.45033,1699.4483 898.21951,1720.0206 907.53611,1722.8541 C 949.56479,1735.6364 986.53815,1743.6376 1041.7287,1751.8937 C 1046.543,1752.6139 1087.0738,1752.9697 1164.3026,1752.9697 C 1289.0221,1752.9697 1280.6808,1753.2764 1314.5361,1747.4463 C 1341.5672,1742.7913 1365.5656,1737.3622 1388.0361,1730.8186 L 1399.5361,1727.4697 L 1424.2231,1727.7987 C 1448.9058,1728.1277 1448.9109,1728.1274 1453.2231,1725.6643 C 1456.0832,1724.0306 1459.8941,1722.9761 1464.5361,1722.5337 C 1468.3861,1722.1668 1472.5987,1721.1716 1473.8975,1720.3222 C 1475.1962,1719.4727 1480.5962,1716.888 1485.8975,1714.5783 C 1496.1493,1710.1119 1502.0361,1707.1722 1502.0361,1706.5194 C 1502.0361,1706.2999 1495.3944,1706.3756 1487.2769,1706.6876 C 1474.9305,1707.1621 1472.3154,1707.0111 1471.2804,1705.7641 C 1469.5332,1703.6588 1471.5539,1702.1898 1483.0361,1697.2182 C 1510.905,1685.1515 1563.6323,1658.6524 1582.344,1647.3092 C 1587.1884,1644.3725 1591.2841,1641.9697 1591.4453,1641.9697 C 1591.9708,1641.9697 1616.4327,1625.5365 1620.2885,1622.5931 C 1623.336,1620.2667 1624.3168,1619.9577 1625.5099,1620.9481 C 1626.7749,1621.9978 1626.4002,1623.2319 1622.8177,1629.8186 C 1620.5288,1634.0267 1616.4916,1640.9523 1613.846,1645.2088 C 1611.2006,1649.4652 1609.036,1653.2612 1609.036,1653.6443 C 1609.036,1654.0274 1608.0577,1655.3823 1606.8618,1656.6552 C 1605.5222,1658.0811 1605.1811,1658.9697 1605.9735,1658.9697 C 1606.6809,1658.9697 1609.572,1656.4415 1612.3978,1653.3514 C 1615.2238,1650.2614 1619.5611,1646.3607 1622.036,1644.6832 C 1624.511,1643.0058 1628.403,1640.0215 1630.6849,1638.0515 C 1632.9669,1636.0815 1636.4454,1633.3447 1638.4152,1631.9697 C 1640.3848,1630.5947 1645.2162,1627.2197 1649.1514,1624.4697 C 1653.0867,1621.7197 1658.7253,1617.3322 1661.6819,1614.7197 C 1664.6383,1612.1072 1667.4699,1609.9697 1667.9742,1609.9697 C 1669.0651,1609.9697 1684.5732,1594.1643 1686.9089,1590.6718 C 1687.8038,1589.3336 1689.7099,1586.4906 1691.1447,1584.3542 C 1692.5795,1582.2177 1698.9035,1575.0697 1705.1979,1568.4697 C 1713.3706,1559.9002 1717.1362,1555.1509 1718.3696,1551.8564 C 1719.3197,1549.3191 1722.5584,1544.5233 1725.5666,1541.1991 C 1728.5748,1537.8749 1731.036,1534.2919 1731.036,1533.2367 C 1731.036,1531.0194 1734.9747,1526.9697 1737.1312,1526.9697 C 1738.8079,1526.9697 1739.2114,1526.0364 1746.6403,1504.9697 C 1754.6863,1482.1536 1756.024,1479.0956 1761.0038,1472.1339 C 1785.9954,1437.197 1802.5929,1410.6012 1814.5233,1386.3736 C 1821.7721,1371.6535 1823.3754,1367.9773 1834.7612,1339.9697 C 1855.2332,1289.6116 1874.7112,1228.2993 1884.486,1183.4483 C 1885.9218,1176.8601 1887.7422,1168.5447 1888.5313,1164.9697 C 1896.4913,1128.9066 1904.6935,1065.9781 1908.0173,1015.4697 C 1911.5609,961.62137 1911.4784,964.79945 1913.8844,789.46969 C 1914.9998,708.18213 1916.5264,678.51892 1922.5569,620.96969 C 1923.9112,608.04469 1925.2281,595.44469 1925.4832,592.96969 C 1926.7389,580.78582 1931.568,551.96762 1934.9509,536.46969 C 1939.5276,515.50226 1940.3452,512.39715 1941.6565,511.0054 C 1942.8678,509.71969 1943.2051,509.71969 1944.4218,511.0054 C 1945.8797,512.54618 1946.113,515.72503 1948.0141,559.96969 C 1948.5694,572.89469 1949.4786,589.31969 1950.0343,596.46969 C 1951.0191,609.13681 1952.1056,633.97428 1954.0366,687.96969 C 1955.5634,730.66795 1955.2904,822.0402 1953.5738,842.79211 C 1949.4001,893.2462 1947.9336,911.82365 1947.047,925.46969 C 1941.5398,1010.2438 1936.5328,1061.5855 1929.4443,1105.9697 C 1919.6761,1167.1317 1909.1242,1212.8196 1892.4081,1266.3316 C 1888.8238,1277.8057 1885.4952,1288.1557 1885.011,1289.3316 C 1884.527,1290.5076 1882.1084,1297.0947 1879.6364,1303.9697 C 1854.178,1374.7731 1832.1214,1417.5544 1787.6084,1482.4697 C 1780.5632,1492.7439 1762.5912,1516.9055 1759.3429,1520.4697 C 1755.6138,1524.5615 1749.036,1533.2604 1749.036,1534.1003 C 1749.036,1535.4908 1752.902,1538.9697 1754.4472,1538.9697 C 1755.2233,1538.9697 1757.0276,1540.4322 1758.4567,1542.2197 C 1765.1964,1550.6495 1777.4347,1559.3667 1796.9596,1569.6451 C 1799.3926,1570.9259 1802.1993,1572.7125 1803.1971,1573.6154 C 1804.7699,1575.0389 1806.042,1575.1218 1812.7734,1574.2395 C 1817.0429,1573.6799 1825.261,1572.2217 1831.036,1570.999 L 1841.536,1568.776 L 1848.036,1560.2484 C 1864.9204,1538.0972 1898.036,1489.7717 1898.036,1487.2835 C 1898.036,1486.955 1900.45,1482.8126 1903.4002,1478.078 C 1935.0387,1427.3052 1973.016,1343.501 1993.6296,1278.9697 C 1995.6501,1272.6447 1997.9181,1266.8108 1998.6696,1266.0054 C 1999.8254,1264.7668 2000.036,1281.3778 2000.036,1373.7869 L 2000.036,1483.0327 L 1994.3722,1493.7512 C 1989.4533,1503.0603 1984.8641,1511.1399 1967.9274,1540.3108 C 1959.8238,1554.2681 1954.9815,1558.3683 1915.7763,1584.4694 C 1912.0585,1586.9446 1908.81,1588.9697 1908.5576,1588.9697 C 1908.305,1588.9697 1904.8743,1591.0553 1900.9338,1593.6044 C 1889.2072,1601.1903 1861.7151,1616.4703 1843.5195,1625.5149 L 1826.5027,1633.9734 L 1821.4515,1641.7216 C 1811.6578,1656.7438 1809.0198,1660.9697 1809.4362,1660.9697 C 1811.6475,1660.9697 1850.5538,1642.0336 1865.4044,1633.7293 C 1870.4267,1630.9209 1876.817,1627.39 1879.605,1625.8829 C 1886.6948,1622.0503 1903.6843,1611.5676 1915.5173,1603.7244 C 1923.0094,1598.7586 1925.8206,1597.376 1926.7898,1598.1803 C 1928.4046,1599.5204 1927.9617,1600.2375 1914.8764,1617.4697 C 1877.5224,1666.6612 1831.981,1714.3992 1786.3268,1752.2197 L 1781.8,1755.9697 L 1704.1958,1755.9697 C 1628.823,1755.9697 1626.6483,1755.9169 1628.5639,1754.1317 C 1629.6485,1753.1208 1636.6111,1748.5475 1644.036,1743.9688 C 1665.5055,1730.7294 1695.0196,1710.5261 1704.536,1702.5546 L 1707.536,1700.0416 L 1704.9603,1700.0057 C 1702.1448,1699.9664 1698.036,1696.2671 1698.036,1693.7716 C 1698.036,1691.6693 1704.6988,1685.7571 1709.0433,1684.0042 C 1714.9418,1681.6245 1725.036,1674.8747 1725.036,1673.3102 C 1725.036,1672.4961 1726.3005,1669.949 1727.8461,1667.6499 C 1729.3918,1665.3508 1730.476,1662.6421 1730.2556,1661.6305 C 1729.7072,1659.1127 1733.2665,1655.5842 1739.4047,1652.5609 C 1742.579,1650.9973 1748.3498,1646.2415 1754.536,1640.0906 C 1762.6833,1631.9899 1765.757,1629.632 1771.1257,1627.3642 C 1777.6867,1624.5927 1777.7108,1624.5681 1776.626,1621.6944 C 1775.7388,1619.3438 1775.8305,1618.5911 1777.1203,1617.6389 C 1779.4292,1615.9344 1780.2751,1609.4129 1778.3901,1607.8485 C 1777.565,1607.1638 1776.0136,1604.8859 1774.9427,1602.7866 C 1773.4325,1599.8263 1772.3828,1598.9507 1770.2658,1598.8849 C 1768.7644,1598.8382 1763.3086,1597.6007 1758.1417,1596.1349 C 1750.9693,1594.1001 1748.2833,1592.8477 1746.7861,1590.8399 C 1744.4018,1587.6425 1745.1538,1584.3288 1748.6228,1582.7482 C 1752.4761,1580.9925 1751.4426,1579.9715 1745.786,1579.9458 C 1738.1134,1579.911 1732.8263,1578.4108 1730.379,1575.5743 C 1729.1926,1574.1992 1726.5656,1572.3821 1724.5413,1571.5363 L 1720.8607,1569.9985 L 1715.8584,1574.2165 C 1713.107,1576.5364 1709.6591,1580.0883 1708.1961,1582.1094 C 1697.0874,1597.4566 1677.9078,1618.4779 1672.536,1621.194 C 1670.336,1622.3064 1666.286,1625.2444 1663.536,1627.7229 C 1660.786,1630.2015 1654.261,1635.3085 1649.036,1639.0719 C 1631.3351,1651.8212 1625.5515,1656.4539 1619.036,1663.1024 C 1615.461,1666.7504 1610.1953,1670.9095 1607.3342,1672.3448 C 1604.4734,1673.7801 1599.7483,1676.8864 1596.8342,1679.2476 C 1588.7026,1685.8367 1572.8313,1696.0583 1559.3857,1703.366 C 1552.7028,1706.998 1546.9517,1709.9697 1546.605,1709.9697 C 1546.2586,1709.9697 1544.5468,1711.5964 1542.8012,1713.5845 C 1539.668,1717.153 1538.5108,1718.0417 1527.92,1725.0142 C 1515.1923,1733.3935 1504.6163,1737.9697 1497.979,1737.9697 C 1496.4973,1737.9697 1492.6576,1739.1316 1489.4464,1740.5518 C 1485.8384,1742.1474 1482.474,1742.9674 1480.6397,1742.6982 C 1478.7176,1742.4161 1474.1233,1743.651 1467.6038,1746.2021 C 1462.0666,1748.3689 1453.9625,1751.453 1449.5947,1753.0557 L 1441.6533,1755.9697 L 1174.8951,1755.9697 L 908.13683,1755.9697 L 893.83647,1751.9058 C 875.59378,1746.7215 859.24819,1741.6155 832.70875,1732.811 C 784.40213,1716.7852 745.78164,1705.6059 710.53611,1697.4463 C 704.48611,1696.0456 696.83611,1694.2546 693.53611,1693.4663 C 682.20891,1690.7602 669.50441,1688.1153 648.53611,1684.0978 C 611.15114,1676.9349 612.7296,1677.1393 606.29689,1678.628 C 603.12846,1679.3613 599.3422,1680.1857 597.88298,1680.4602 C 595.52932,1680.9029 595.1516,1681.5524 594.53661,1686.2144 C 594.15533,1689.1048 593.77424,1700.0024 593.68974,1710.4314 L 593.53611,1729.393 L 597.53611,1730.2358 C 613.70742,1733.6429 650.21829,1742.1979 658.53611,1744.529 C 661.28611,1745.2996 669.61111,1747.5609 677.03611,1749.554 C 700.81196,1755.9363 700.60946,1755.9697 638.14199,1755.9697 L 582.81929,1755.9697 L 583.44115,1753.492 C 584.03179,1751.1387 583.89915,1751.0509 580.79956,1751.742 C 579.00466,1752.1422 574.5252,1752.4562 570.8452,1752.4397 C 565.25586,1752.4147 564.07767,1752.7028 563.68882,1754.1897 C 563.24474,1755.8879 555.08188,1755.9697 386.04108,1755.9697 L 208.8588,1755.9697 L 203.69745,1751.4321 C 200.78313,1748.87 197.88306,1747.1044 197.0361,1747.3766 C 196.2111,1747.6417 193.0611,1748.7157 190.0361,1749.7632 C 186.62825,1750.9432 180.16161,1751.9186 173.0361,1752.3273 C 160.51869,1753.0452 156.76149,1753.7164 157.60636,1755.0834 C 157.922,1755.5941 136.27933,1755.9697 106.53611,1755.9697 C 70.63073,1755.9697 55.11628,1755.649 55.56918,1754.9162 C 56.29205,1753.7466 71.17483,1743.9836 76.18244,1741.394 C 79.13789,1739.8657 79.23404,1739.664 77.45752,1738.7192 C 76.40075,1738.1572 73.24454,1735.9586 70.44374,1733.8335 C 67.64293,1731.7084 64.98951,1729.9697 64.54724,1729.9697 C 63.45713,1729.9697 43.22132,1743.2385 31.03611,1751.9432 L 25.53611,1755.8722 L 12.78611,1755.921 L 0.03611,1755.9697 L 0.03611,1743.0774 z"
       id="path2528" />
    <path
       style="fill:#149b7b;fill-opacity:1"
       d="M 1595.0902,1670.6441 C 1594.2359,1669.7898 1594.8617,1668.0949 1597.5826,1663.8941 C 1603.9195,1654.1105 1616.3373,1633.5416 1620.288,1626.2848 C 1622.384,1622.4348 1624.8841,1618.1598 1625.8438,1616.7848 C 1628.5137,1612.9594 1645.2682,1579.1185 1651.7838,1564.3907 C 1667.3891,1529.1171 1679.8981,1495.5075 1691.275,1458.2848 C 1693.2922,1451.6848 1695.3572,1445.3848 1695.8638,1444.2848 C 1697.1634,1441.463 1703.2744,1419.4117 1708.4731,1398.7848 C 1717.4998,1362.9694 1724.9229,1327.3357 1731.8044,1286.7848 C 1739.6448,1240.5844 1748.6861,1204.2513 1759.408,1175.8588 C 1766.4525,1157.2042 1770.646,1149.8196 1778.8995,1141.5348 C 1784.8207,1135.5912 1786.0731,1134.7848 1789.3831,1134.7848 C 1799.4655,1134.7848 1806.8101,1147.1814 1812.0536,1173.0498 C 1814.1735,1183.5084 1814.329,1186.7382 1814.304,1219.7848 C 1814.2739,1259.5813 1813.5385,1267.2862 1805.9523,1307.2848 C 1790.7136,1387.6316 1769.2719,1461.9497 1738.8131,1539.993 C 1732.6407,1555.8083 1669.0307,1617.7312 1621.4074,1654.2848 C 1608.446,1664.2334 1597.9182,1671.7848 1597.0097,1671.7848 C 1596.5813,1671.7848 1595.7176,1671.2715 1595.0902,1670.6441 z"
       id="path2579" />
    <path
       style="fill:#473292;fill-opacity:1"
       d="M 148.47263,1751.6515 C 145.68772,1749.3515 138.03772,1743.1308 131.47263,1737.8277 C 117.25348,1726.3419 112.37837,1721.4942 114.02392,1720.4772 C 114.77564,1720.0127 112.42445,1716.8756 107.36083,1711.5872 C 103.05724,1707.0925 97.49583,1701.1774 95.00213,1698.4424 C 92.50844,1695.7074 88.04484,1691.3185 85.08302,1688.6892 L 79.6979,1683.9087 L 73.94263,1684.5598 C 67.42978,1685.2966 68.59423,1686.0369 48.62939,1668.4674 C 43.62809,1664.0662 35.48612,1657.0918 30.53612,1652.9687 C 25.58612,1648.8457 19.22505,1643.4467 16.40041,1640.971 C 13.57576,1638.4953 8.73826,1634.304 5.65041,1631.6571 L 0.03612,1626.8446 L 0.03612,1599.4071 C 0.03612,1583.2913 0.4173,1571.9697 0.9599,1571.9697 C 1.46798,1571.9697 7.65548,1577.0913 14.7099,1583.351 C 21.76433,1589.6107 29.86724,1596.6982 32.71639,1599.101 C 37.95427,1603.5183 55.16035,1618.8368 78.03612,1639.4488 C 84.91112,1645.6435 95.26112,1654.7591 101.03612,1659.7057 C 106.81112,1664.6524 112.66112,1669.9253 114.03612,1671.4233 L 116.53612,1674.1469 L 113.69673,1676.4172 L 110.85734,1678.6874 L 116.69673,1684.0785 C 119.90839,1687.0437 126.4469,1693.2375 131.22674,1697.8426 L 139.91735,1706.2154 L 146.22674,1705.5504 L 152.53612,1704.8853 L 162.38049,1713.1775 C 180.01677,1728.033 194.3609,1739.841 203.53612,1747.0565 C 208.48612,1750.9493 212.68612,1754.5473 212.86945,1755.052 C 213.06735,1755.5968 201.08161,1755.942 183.36945,1755.9015 L 153.53612,1755.8332 L 148.47263,1751.6515 z M 560.38073,1752.7197 C 561.51143,1746.6585 567.62443,1727.1706 568.86323,1725.678 C 569.76913,1724.5865 570.98683,1724.3947 573.46403,1724.9535 C 575.31703,1725.3714 577.36123,1725.3868 578.00683,1724.9878 C 579.44583,1724.0984 580.98003,1717.8021 581.01223,1712.654 C 581.02533,1710.5553 581.54763,1707.8825 582.17273,1706.7144 C 583.50803,1704.2195 585.94113,1690.317 586.71403,1680.7664 C 587.24443,1674.2129 587.19913,1674.0487 584.68733,1673.4183 C 580.12753,1672.2739 580.00413,1671.2865 582.56583,1656.4392 C 583.89153,1648.756 585.89713,1635.0447 587.02283,1625.9697 C 589.74323,1604.0386 589.70323,1604.1932 593.11943,1602.4266 C 596.01963,1600.9269 596.03613,1600.8666 596.03613,1591.7585 C 596.03613,1583.9126 595.74323,1582.2868 593.99443,1580.4253 C 592.02923,1578.3335 591.99113,1577.7122 592.97663,1563.8364 C 593.53973,1555.9078 594.69093,1532.3318 595.53493,1511.4452 C 598.37233,1441.2235 601.39053,1403.6276 606.04023,1380.5831 C 615.32163,1334.5832 632.80583,1308.6456 659.96763,1300.5821 C 667.07673,1298.4717 687.25492,1298.42 697.22072,1300.4868 C 724.49702,1306.1435 761.05322,1323.9951 796.14863,1348.7967 C 799.78553,1351.3668 805.63553,1355.4746 809.14863,1357.925 C 812.66173,1360.3754 820.93613,1367.3509 827.53613,1373.4261 C 834.13613,1379.5012 844.00213,1388.5214 849.46063,1393.4708 C 854.91913,1398.4202 865.98543,1408.7947 874.05233,1416.5253 C 900.51813,1441.8875 934.56213,1471.2831 949.89973,1482.0164 C 967.81693,1494.555 983.06373,1502.8229 997.03613,1507.5774 C 1004.832,1510.2301 1006.6958,1510.4682 1019.5361,1510.4515 C 1032.7182,1510.4344 1033.885,1510.2712 1039.5082,1507.6583 C 1042.7928,1506.1321 1048.0256,1502.6694 1051.1367,1499.9635 C 1056.5138,1495.2866 1056.8732,1495.1322 1058.4159,1496.8369 C 1059.9401,1498.5211 1059.5981,1499.0259 1052.7874,1505.1438 C 1042.2049,1514.6499 1038.3101,1516.1568 1022.8387,1516.7314 C 1011.8697,1517.1387 1008.9465,1516.8929 1001.3646,1514.9252 C 988.80243,1511.6651 976.76693,1506.4309 959.52203,1496.7282 C 941.69033,1486.6954 903.16963,1456.2392 881.36543,1434.934 C 874.30933,1428.0394 863.92543,1418.4537 858.29013,1413.6326 C 852.65483,1408.8115 844.77983,1401.8495 840.79013,1398.1616 C 808.21673,1368.0519 766.83583,1340.6504 732.37232,1326.3699 C 702.33532,1313.9237 676.92743,1310.1489 662.17513,1315.941 C 644.95663,1322.7014 635.71733,1335.3113 628.02713,1362.5461 C 620.80583,1388.1207 617.57123,1428.102 616.54523,1504.4697 C 615.95783,1548.1857 614.60943,1577.9909 613.09733,1580.6768 C 611.41343,1583.668 610.26063,1601.8452 611.63073,1603.8013 C 612.54793,1605.1108 612.30093,1610.8154 610.51893,1629.4773 C 606.68503,1669.6287 605.45673,1675.9697 601.51303,1675.9697 C 600.70073,1675.9697 600.00783,1676.0822 599.97323,1676.2197 C 599.93863,1676.3572 599.50503,1680.0697 599.00973,1684.4697 C 597.58033,1697.1686 595.40743,1709.4073 594.17273,1711.7144 C 593.54763,1712.8825 593.03613,1715.8716 593.03613,1718.3569 C 593.03613,1720.8422 592.50833,1724.034 591.86323,1725.4498 C 590.96603,1727.4188 590.96603,1728.2997 591.86323,1729.1968 C 593.41683,1730.7504 593.34563,1734.615 591.66343,1740.0416 C 590.90843,1742.477 589.53543,1747.0572 588.61233,1750.2197 L 586.93393,1755.9697 L 573.35413,1755.9697 L 559.77443,1755.9697 L 560.38073,1752.7197 z"
       id="path2630" />
    <path
       style="fill:#e02a2c;fill-opacity:1"
       d="M 681.03603,1754.2599 C 667.95632,1750.0347 608.64117,1735.9561 580.53603,1730.406 C 556.92062,1725.7424 552.64249,1724.932 541.03603,1722.9238 C 423.53062,1702.5926 288.35502,1696.6954 174.06012,1706.914 C 142.48798,1709.7367 141.68926,1709.7531 141.24626,1707.5895 C 140.97076,1706.2438 142.76937,1704.954 148.91583,1702.0895 C 153.33204,1700.0313 156.96571,1698.0098 156.99066,1697.5973 C 157.01562,1697.1848 148.91708,1696.8473 138.99393,1696.8473 L 120.95182,1696.8473 L 108.81086,1703.4701 C 102.13334,1707.1127 93.8154,1711.8401 90.32656,1713.9755 C 84.8987,1717.2977 82.29123,1718.1356 72.25964,1719.7811 C 55.28774,1722.565 23.95004,1728.4162 13.26574,1730.7961 C -1.36256,1734.0545 0.03604,1735.6754 0.03604,1715.4639 C 0.03604,1699.7659 0.20574,1698.032 1.78604,1697.5795 C 10.56124,1695.0667 20.89994,1692.3659 27.53604,1690.8526 C 31.93604,1689.8492 40.48604,1687.8602 46.53604,1686.4325 C 52.58604,1685.0048 63.38604,1682.6915 70.53604,1681.2918 C 77.68604,1679.8921 86.46103,1678.1299 90.03603,1677.3756 C 98.00433,1675.6946 121.22156,1671.6251 138.03603,1668.9622 C 185.60309,1661.429 191.71389,1662.2825 168.87074,1673.2688 L 155.53603,1679.6821 L 176.6574,1679.7647 L 197.77877,1679.8473 L 211.6574,1674.2434 C 219.29065,1671.1612 227.33603,1668.04 229.53603,1667.3073 C 231.73603,1666.5747 240.28603,1663.5362 248.53603,1660.5552 L 263.53603,1655.1352 L 288.03603,1653.869 C 321.51602,1652.1388 396.42485,1652.3586 433.53603,1654.2961 C 526.8373,1659.1671 611.19611,1670.6876 695.03603,1690.008 C 704.66103,1692.226 713.66103,1694.2723 715.03603,1694.5552 C 730.75386,1697.7895 786.25043,1713.6525 814.03603,1722.853 C 863.04437,1739.0811 892.21904,1748.0497 906.71709,1751.3444 C 910.66668,1752.2419 914.43428,1753.6222 915.08954,1754.4118 C 916.89408,1756.5861 687.77702,1756.4374 681.03603,1754.2599 z M 1437.0717,1754.4201 C 1437.8771,1753.6351 1444.611,1750.7535 1452.036,1748.0166 C 1464.96,1743.2526 1477.2111,1738.223 1494.536,1730.5686 C 1501.1724,1727.6365 1504.1553,1726.9291 1512.0361,1726.4182 C 1570.869,1722.6038 1616.5489,1717.4875 1618.8821,1714.451 C 1619.6625,1713.4354 1625.0507,1697.0897 1625.0405,1695.7688 C 1625.0381,1695.4506 1621.3236,1695.7872 1616.7861,1696.5167 C 1604.2563,1698.5314 1568.3491,1702.701 1561.2613,1702.9644 C 1552.2314,1703.3 1550.4799,1700.7193 1557.3495,1697.2011 C 1564.3544,1693.6136 1599.4844,1669.7359 1614.7425,1658.1914 C 1651.9615,1630.0308 1680.9403,1603.7938 1713.4233,1568.8473 C 1741.0638,1539.1106 1764.8021,1509.9855 1781.8873,1484.8473 C 1807.0535,1447.8192 1812.3677,1439.4445 1825.9888,1415.3473 C 1857.7061,1359.2359 1886.3583,1283.1244 1906.3608,1201.8472 C 1923.0965,1133.8444 1933.6044,1062.1336 1939.5499,975.34727 C 1940.3412,963.79727 1941.453,948.04727 1942.0206,940.34727 C 1942.5881,932.64727 1943.717,917.34727 1944.5289,906.34727 C 1945.3411,895.34727 1947.2205,872.17227 1948.7054,854.84727 C 1951.2387,825.29217 1951.4082,819.73537 1951.4511,764.84727 C 1951.4956,707.9213 1949.3763,641.80094 1946.0822,597.34727 C 1945.5116,589.64727 1944.587,572.54727 1944.0274,559.34727 C 1943.4678,546.14727 1942.5613,526.79727 1942.013,516.34727 C 1941.4646,505.89727 1940.3452,482.94727 1939.5251,465.34727 C 1938.7052,447.74727 1937.3648,419.17227 1936.5465,401.84727 C 1935.7283,384.52227 1934.5914,360.44727 1934.0201,348.34727 C 1930.1794,266.99464 1928.0558,186.5729 1928.0392,121.8473 C 1928.0188,42.9063 1930.8866,13.1376 1939.4673,3.211 C 1942.1387,0.1208 1943.0748,-0.3598 1945.3232,0.2045 C 1959.6987,3.8125 1975.8017,48.4228 1994.9967,137.8158 L 2000.036,161.28437 L 2000.036,716.3499 L 2000.036,1271.4154 L 1994.6445,1287.3813 C 1982.0667,1324.6279 1968.168,1359.1743 1950.525,1397.0446 C 1942.1173,1415.0917 1923.4108,1451.0926 1915.6699,1464.1237 C 1913.31,1468.0967 1909.4044,1474.7223 1906.9911,1478.8473 C 1890.6361,1506.8018 1869.0804,1537.9471 1841.9399,1572.8379 C 1826.981,1592.0688 1799.5035,1622.2784 1776.7051,1644.5592 L 1759.0934,1661.7711 L 1740.3147,1667.7747 C 1729.9865,1671.0767 1713.0887,1676.0233 1702.7643,1678.7672 C 1692.4399,1681.5111 1683.6114,1683.9918 1683.1454,1684.2798 C 1682.6794,1684.5677 1681.9783,1688.4699 1681.5874,1692.9513 C 1681.1964,1697.4326 1680.6518,1701.6851 1680.377,1702.4013 C 1680.0352,1703.2917 1684.0917,1702.5589 1693.2067,1700.0833 C 1707.0176,1696.3325 1714.0621,1695.4959 1714.7532,1697.5246 C 1715.3133,1699.1685 1694.4635,1714.6197 1667.0361,1732.8864 C 1648.848,1744.9998 1647.5801,1745.8143 1637.6839,1751.7425 L 1630.8317,1755.8473 L 1533.2196,1755.8473 C 1448.6478,1755.8473 1435.803,1755.6566 1437.0717,1754.4201 z"
       id="path2681" />
    <path
       style="fill:#f89928;fill-opacity:1;stroke:none;stroke-opacity:1"
       d="M 22.28563,1754.7197 C 22.85138,1753.0207 49.93967,1734.3268 69.53605,1722.1117 C 126.97198,1686.3097 185.16999,1658.6506 255.86543,1633.5569 C 294.38779,1619.8832 359.7498,1602.9667 404.8421,1594.9998 C 466.01813,1584.1912 512.53454,1579.3976 571.02577,1577.8742 C 601.58104,1577.0784 610.85719,1576.5407 612.02577,1575.4977 C 667.23754,1573.9748 704.85669,1575.0322 753.23071,1581.0187 C 797.3996,1583.9292 851.91336,1596.1197 877.03604,1600.5293 C 919.57084,1608.1632 944.78164,1613.8424 1039.536,1637.1353 C 1125.0365,1658.1534 1144.2598,1662.5975 1185.7371,1670.9343 C 1291.3264,1692.1576 1383.1015,1702.2546 1470.536,1702.2672 C 1561.0459,1702.2803 1643.6436,1691.2941 1721.036,1668.9489 C 1777.0561,1652.7745 1837.7128,1626.7248 1887.036,1597.6583 C 1891.711,1594.9033 1896.436,1592.1416 1897.536,1591.5211 C 1919.8536,1578.932 1964.3096,1547.1182 1990.1388,1525.2523 C 1994.8703,1521.2468 1999.0328,1517.9696 1999.3888,1517.9696 C 1999.7447,1517.9696 2000.036,1523.7225 2000.036,1530.7538 L 2000.036,1543.5379 L 1994.786,1548.6065 C 1986.3995,1556.7032 1948.2285,1586.0032 1930.4003,1598.029 C 1895.7461,1621.4044 1877.2496,1632.383 1847.3199,1647.3413 C 1802.9324,1669.5254 1767.0624,1683.7933 1722.6019,1696.9502 C 1651.5987,1717.9615 1581.9516,1728.806 1503.6228,1731.0468 C 1409.7032,1733.7335 1317.0664,1726.1746 1214.7172,1707.4727 C 1163.2906,1698.0758 1134.3518,1691.5573 1046.3622,1669.5512 C 955.61704,1646.8559 920.45774,1638.7668 889.36264,1633.4304 C 881.20804,1632.0309 868.23604,1629.7945 860.53604,1628.4605 C 787.93025,1615.8822 684.30173,1607.5626 608.36003,1606.2753 L 452.95983,1617.4468 L 382.52323,1628.7216 L 345.91082,1635.9696 L 318.4204,1643.5103 C 276.53743,1654.9989 221.85025,1673.9418 190.03605,1687.981 C 185.36105,1690.044 175.68605,1694.3158 168.53605,1697.4741 C 144.63328,1708.0319 99.40592,1731.5451 78.53605,1744.264 C 75.78605,1745.94 70.33643,1749.2594 66.42579,1751.6405 L 59.31552,1755.9697 L 40.59245,1755.9697 C 26.05867,1755.9697 21.96252,1755.69 22.28563,1754.7197 z"
       id="path2800"
       sodipodi:nodetypes="csssscccsssssssscccsssssssscccccssscccc" />
  </g>
  <text
     xml:space="preserve"
     style="font-size:200px;font-style:normal;font-variant:normal;font-weight:bold;font-stretch:normal;text-align:start;line-height:125%;writing-mode:lr-tb;text-anchor:start;fill:#000000;fill-opacity:1;stroke:none;stroke-width:1px;stroke-linecap:butt;stroke-linejoin:miter;stroke-opacity:1;font-family:Myriad Pro;-inkscape-font-specification:Myriad Pro Bold"
     x="3.4573228"
     y="1139.5929"
     id="text2409"
     transform="matrix(0.9922355,-0.1243732,0.1243732,0.9922355,0,0)"
     sodipodi:linespacing="125%"><tspan
       sodipodi:role="line"
       id="tspan2411"
       x="3.4573228"
       y="1139.5929"
       style="font-size:200px;font-style:normal;font-variant:normal;font-weight:bold;font-stretch:normal;text-align:start;line-height:125%;writing-mode:lr-tb;text-anchor:start;font-family:Myriad Pro;-inkscape-font-specification:Myriad Pro Bold">Gebruiksvriendelijk</tspan></text>
  <text
     xml:space="preserve"
     style="font-size:200px;font-style:normal;font-variant:normal;font-weight:bold;font-stretch:normal;text-align:start;line-height:125%;writing-mode:lr-tb;text-anchor:start;fill:#000000;fill-opacity:1;stroke:none;stroke-width:1px;stroke-linecap:butt;stroke-linejoin:miter;stroke-opacity:1;font-family:Myriad Pro;-inkscape-font-specification:Myriad Pro Bold"
     x="674.05762"
     y="1663.342"
     id="text2413"
     transform="matrix(0.9947614,0.1022242,-0.1022242,0.9947614,0,0)"
     sodipodi:linespacing="125%"><tspan
       sodipodi:role="line"
       id="tspan2415"
       x="674.05762"
       y="1663.342"
       style="font-size:200px;font-style:normal;font-variant:normal;font-weight:bold;font-stretch:normal;text-align:start;line-height:125%;writing-mode:lr-tb;text-anchor:start;font-family:Myriad Pro;-inkscape-font-specification:Myriad Pro Bold">Op maat van jouw groep</tspan></text>
  <text
     xml:space="preserve"
     style="font-size:200px;font-style:normal;font-variant:normal;font-weight:bold;font-stretch:normal;text-align:start;line-height:125%;writing-mode:lr-tb;text-anchor:start;fill:#000000;fill-opacity:1;stroke:none;stroke-width:1px;stroke-linecap:butt;stroke-linejoin:miter;stroke-opacity:1;font-family:Myriad Pro;-inkscape-font-specification:Myriad Pro Bold"
     x="260.23471"
     y="3241.54"
     id="text2421"
     transform="matrix(0.99907,4.3117605e-2,-4.3117605e-2,0.99907,0,0)"
     sodipodi:linespacing="125%"><tspan
       sodipodi:role="line"
       id="tspan2423"
       x="260.23471"
       y="3241.54"
       style="font-size:200px;font-style:normal;font-variant:normal;font-weight:bold;font-stretch:normal;text-align:start;line-height:125%;writing-mode:lr-tb;text-anchor:start;font-family:Myriad Pro;-inkscape-font-specification:Myriad Pro Bold">Altijd de juiste gegevens</tspan></text>
  <text
     xml:space="preserve"
     style="font-size:200.00039673px;font-style:normal;font-variant:normal;font-weight:bold;font-stretch:normal;text-align:start;line-height:125%;writing-mode:lr-tb;text-anchor:start;fill:#000000;fill-opacity:1;stroke:none;stroke-width:1px;stroke-linecap:butt;stroke-linejoin:miter;stroke-opacity:1;font-family:Myriad Pro;-inkscape-font-specification:Myriad Pro Bold"
     x="-49.24897"
     y="2663.4827"
     id="text2433"
     transform="matrix(0.9899418,-0.1414755,0.1414755,0.9899418,0,0)"
     sodipodi:linespacing="125%"><tspan
       sodipodi:role="line"
       id="tspan2435"
       x="-49.24897"
       y="2663.4827"
       style="font-size:200.00039673px;font-style:normal;font-variant:normal;font-weight:bold;font-stretch:normal;text-align:start;line-height:125%;writing-mode:lr-tb;text-anchor:start;font-family:Myriad Pro;-inkscape-font-specification:Myriad Pro Bold">100% online</tspan></text>
  <text
     xml:space="preserve"
     style="font-size:80px;font-style:normal;font-variant:normal;font-weight:normal;font-stretch:normal;text-align:start;line-height:125%;writing-mode:lr-tb;text-anchor:start;fill:#000000;fill-opacity:1;stroke:none;stroke-width:1px;stroke-linecap:butt;stroke-linejoin:miter;stroke-opacity:1;font-family:Myriad Pro;-inkscape-font-specification:Myriad Pro"
     x="1066.4252"
     y="1142.6143"
     id="text2437"
     sodipodi:linespacing="125%"><tspan
       sodipodi:role="line"
       id="tspan2439"
       x="1066.4252"
       y="1142.6143">Leden gaan automatisch over naar de juiste afdeling</tspan></text>
  <text
     xml:space="preserve"
     style="font-size:80px;font-style:normal;font-variant:normal;font-weight:normal;font-stretch:normal;text-align:start;line-height:125%;writing-mode:lr-tb;text-anchor:start;fill:#000000;fill-opacity:1;stroke:none;stroke-width:1px;stroke-linecap:butt;stroke-linejoin:miter;stroke-opacity:1;font-family:Myriad Pro;-inkscape-font-specification:Myriad Pro"
     x="646.78986"
     y="1264.2927"
     id="text2457"
     sodipodi:linespacing="125%"><tspan
       sodipodi:role="line"
       id="tspan2459"
       x="646.78986"
       y="1264.2927">Een kind met 3 adressen?  Vanaf 2010 is het geen probleem meer ...</tspan></text>
  <text
     xml:space="preserve"
     style="font-size:80px;font-style:normal;font-variant:normal;font-weight:normal;font-stretch:normal;text-align:start;line-height:125%;writing-mode:lr-tb;text-anchor:start;fill:#000000;fill-opacity:1;stroke:none;stroke-width:1px;stroke-linecap:butt;stroke-linejoin:miter;stroke-opacity:1;font-family:Myriad Pro;-inkscape-font-specification:Myriad Pro"
     x="282.38687"
     y="1385.386"
     id="text2461"
     sodipodi:linespacing="125%"><tspan
       sodipodi:role="line"
       id="tspan2463"
       x="282.38687"
       y="1385.386">Adreswijzigingen voor een volledig gezin kunnen in n keer</tspan></text>
  <text
     xml:space="preserve"
     style="font-size:80px;font-style:normal;font-variant:normal;font-weight:normal;font-stretch:normal;text-align:start;line-height:125%;writing-mode:lr-tb;text-anchor:start;fill:#000000;fill-opacity:1;stroke:none;stroke-width:1px;stroke-linecap:butt;stroke-linejoin:miter;stroke-opacity:1;font-family:Myriad Pro;-inkscape-font-specification:Myriad Pro"
     x="117.54213"
     y="1922.6959"
     id="text2465"
     sodipodi:linespacing="125%"><tspan
       sodipodi:role="line"
       x="117.54213"
       y="1922.6959"
       id="tspan2469">Indeling en namen van de afdelingen</tspan></text>
  <text
     xml:space="preserve"
     style="font-size:80px;font-style:normal;font-variant:normal;font-weight:normal;font-stretch:normal;text-align:start;line-height:125%;writing-mode:lr-tb;text-anchor:start;fill:#000000;fill-opacity:1;stroke:none;stroke-width:1px;stroke-linecap:butt;stroke-linejoin:miter;stroke-opacity:1;font-family:Myriad Pro;-inkscape-font-specification:Myriad Pro"
     x="879.52759"
     y="1507.5118"
     id="text2473"
     sodipodi:linespacing="125%"><tspan
       sodipodi:role="line"
       id="tspan2475"
       x="879.52759"
       y="1507.5118">Geen gedoe meer met aansluitingsdiskettes of e-mails</tspan></text>
  <text
     xml:space="preserve"
     style="font-size:80px;font-style:normal;font-variant:normal;font-weight:normal;font-stretch:normal;text-align:start;line-height:125%;writing-mode:lr-tb;text-anchor:start;fill:#000000;fill-opacity:1;stroke:none;stroke-width:1px;stroke-linecap:butt;stroke-linejoin:miter;stroke-opacity:1;font-family:Myriad Pro;-inkscape-font-specification:Myriad Pro"
     x="174.59842"
     y="2062.4409"
     id="text2477"
     sodipodi:linespacing="125%"><tspan
       sodipodi:role="line"
       x="174.59842"
       y="2062.4409"
       id="tspan2481">Chirogroep bewaart zo veel extra informatie als jij nodig hebt ...</tspan><tspan
       sodipodi:role="line"
       x="174.59842"
       y="2162.4409"
       id="tspan2489">Wie eet vegetarisch op kamp?  In welke maat had jij een Chiro-T-shirt besteld?</tspan><tspan
       sodipodi:role="line"
       x="174.59842"
       y="2262.4409"
       id="tspan2491">Of wil jouw gemeente weten wie meeging op Speelclubweekend?</tspan></text>
  <text
     xml:space="preserve"
     style="font-size:80px;font-style:normal;font-variant:normal;font-weight:normal;font-stretch:normal;text-align:start;line-height:125%;writing-mode:lr-tb;text-anchor:start;fill:#000000;fill-opacity:1;stroke:none;stroke-width:1px;stroke-linecap:butt;stroke-linejoin:miter;stroke-opacity:1;font-family:Myriad Pro;-inkscape-font-specification:Myriad Pro"
     x="357.76379"
     y="2972.8347"
     id="text2493"
     sodipodi:linespacing="125%"><tspan
       sodipodi:role="line"
       id="tspan2495"
       x="357.76379"
       y="2972.8347">Hippe MacBook?  Saaie PC?  Of liever Linux?  Chirogroep werkt overal!</tspan></text>
  <text
     xml:space="preserve"
     style="font-size:80px;font-style:normal;font-variant:normal;font-weight:normal;font-stretch:normal;text-align:start;line-height:125%;writing-mode:lr-tb;text-anchor:start;fill:#000000;fill-opacity:1;stroke:none;stroke-width:1px;stroke-linecap:butt;stroke-linejoin:miter;stroke-opacity:1;font-family:Myriad Pro;-inkscape-font-specification:Myriad Pro"
     x="1349.3229"
     y="2617.937"
     id="text2497"
     sodipodi:linespacing="125%"><tspan
       sodipodi:role="line"
       id="tspan2499"
       x="1349.3229"
       y="2617.937">Meerdere mensen kunnen samenwerken</tspan></text>
  <text
     xml:space="preserve"
     style="font-size:80px;font-style:normal;font-variant:normal;font-weight:normal;font-stretch:normal;text-align:start;line-height:125%;writing-mode:lr-tb;text-anchor:start;fill:#000000;fill-opacity:1;stroke:none;stroke-width:1px;stroke-linecap:butt;stroke-linejoin:miter;stroke-opacity:1;font-family:Myriad Pro;-inkscape-font-specification:Myriad Pro"
     x="570.36218"
     y="2731.313"
     id="text2501"
     sodipodi:linespacing="125%"><tspan
       sodipodi:role="line"
       id="tspan2504"
       x="570.36218"
       y="2731.313">Afdelingsleiding houdt eigen gegevens up-to-date</tspan></text>
  <text
     xml:space="preserve"
     style="font-size:80px;font-style:normal;font-variant:normal;font-weight:normal;font-stretch:normal;text-align:start;line-height:125%;writing-mode:lr-tb;text-anchor:start;fill:#000000;fill-opacity:1;stroke:none;stroke-width:1px;stroke-linecap:butt;stroke-linejoin:miter;stroke-opacity:1;font-family:Myriad Pro;-inkscape-font-specification:Myriad Pro"
     x="286.89764"
     y="2851.6265"
     id="text2506"
     sodipodi:linespacing="125%"><tspan
       sodipodi:role="line"
       id="tspan2508"
       x="286.89764"
       y="2851.6265">Computer gecrasht?  Geen probleem: gegevens gaan niet meer verloren</tspan></text>
  <text
     xml:space="preserve"
     style="font-size:80px;font-style:normal;font-variant:normal;font-weight:normal;font-stretch:normal;text-align:start;line-height:125%;writing-mode:lr-tb;text-anchor:start;fill:#000000;fill-opacity:1;stroke:none;stroke-width:1px;stroke-linecap:butt;stroke-linejoin:miter;stroke-opacity:1;font-family:Myriad Pro;-inkscape-font-specification:Myriad Pro"
     x="1214.1575"
     y="3583.4629"
     id="text2510"
     sodipodi:linespacing="125%"><tspan
       sodipodi:role="line"
       id="tspan2512"
       x="1214.1575"
       y="3583.4629">Correcte spelling van alle straatnamen</tspan></text>
  <text
     xml:space="preserve"
     style="font-size:80px;font-style:normal;font-variant:normal;font-weight:normal;font-stretch:normal;text-align:start;line-height:125%;writing-mode:lr-tb;text-anchor:start;fill:#000000;fill-opacity:1;stroke:none;stroke-width:1px;stroke-linecap:butt;stroke-linejoin:miter;stroke-opacity:1;font-family:Myriad Pro;-inkscape-font-specification:Myriad Pro"
     x="145.16536"
     y="3455.625"
     id="text2514"
     sodipodi:linespacing="125%"><tspan
       sodipodi:role="line"
       id="tspan2516"
       x="145.16536"
       y="3455.625">Je ziet steeds alle gegevens zoals ze op Kipdorp in de database zitten</tspan></text>
</svg>
